<?xml version="1.0" encoding="utf-8"?>
<!-- Generator: Adobe Illustrator 19.2.1, SVG Export Plug-In . SVG Version: 6.00 Build 0)  -->
<svg version="1.1" id="Layer_1" xmlns="http://www.w3.org/2000/svg" xmlns:xlink="http://www.w3.org/1999/xlink" x="0px" y="0px"
	 viewBox="0 0 960 560" style="enable-background:new 0 0 960 560;" xml:space="preserve">
<style type="text/css">
	.st0{opacity:0.83;}
	.st1{fill:#C246BC;}
	.st2{opacity:0.72;}
	.st3{fill:#00E1F2;}
</style>
<g id="CS_x5F_LOGO_x5F_APP" class="st0">
	<path class="st1" d="M605.1,174.7l-52.1,92l-86.1-152.5c4.4-0.4,8.8-0.6,13.2-0.6C530.4,113.6,575.5,137.4,605.1,174.7z"/>
	<path class="st1" d="M504.4,207H334.2c22.2-47,65.9-82.9,118.2-92.2L504.4,207z"/>
	<path class="st1" d="M432.3,223l-84.7,153c-18.4-27-29.1-60.2-29.1-95.7c0-20.4,3.6-39.2,10.1-57.3c0.1-0.2,0.1,0,0.2,0H432.3z"/>
	<path class="st1" d="M494.3,445.7c-4.7,0.4-9.5,0.6-14.3,0.6c-49.6,0-93.9-23-123.5-59.2l51.2-92.9L494.3,445.7z"/>
	<path class="st1" d="M625.8,349c-22,51-65.3,82.4-117.1,92l-52.6-92H625.8z"/>
	<path class="st1" d="M641.6,280.2c0,20.2-3.5,38.8-9.9,57.8H528.2l85.5-151C631.2,213.6,641.6,245.6,641.6,280.2z"/>
</g>
<g id="CS_x5F_LOGO_x5F_C" class="st2">
	<path class="st3" d="M500.3,429.8l0.6,1c-27.9,18-61.1,28.4-96.8,28.4C305.2,459.1,225,378.9,225,280s80.2-179.1,179.1-179.1
		c35.4,0,68.4,10.3,96.2,28v31c-26.1-20.8-59.2-33.1-95.2-33.1c-84.6,0-153.2,68.6-153.2,153.2s68.6,153.2,153.2,153.2
		c36,0,69-12.4,95.2-33.1V429.8z"/>
</g>
<g id="CS_x5F_LOGO_x5F_S" class="st2">
	<path class="st3" d="M446,335.5v-16.7c1.9,1.7,4.2,3.2,6.9,4.5c2.7,1.3,5.5,2.5,8.4,3.4c2.9,0.9,5.9,1.6,8.9,2.1
		c3,0.5,5.7,0.8,8.3,0.8c8.7,0,15.2-1.6,19.5-4.8c4.3-3.2,6.4-7.9,6.4-13.9c0-3.3-0.7-6.1-2.1-8.5c-1.4-2.4-3.4-4.6-5.9-6.6
		c-2.5-2-5.5-3.9-9-5.7c-3.5-1.8-7.2-3.7-11.2-5.8c-4.2-2.1-8.1-4.3-11.8-6.5c-3.6-2.2-6.8-4.6-9.5-7.2c-2.7-2.6-4.8-5.6-6.4-9
		c-1.5-3.3-2.3-7.3-2.3-11.7c0-5.5,1.2-10.3,3.6-14.4c2.4-4.1,5.6-7.4,9.5-10.1c3.9-2.6,8.4-4.6,13.4-5.9c5-1.3,10.1-1.9,15.4-1.9
		c11.9,0,20.6,1.4,26,4.3v15.9c-7.1-4.9-16.3-7.4-27.4-7.4c-3.1,0-6.2,0.3-9.3,1c-3.1,0.6-5.8,1.7-8.3,3.2c-2.4,1.5-4.4,3.3-5.9,5.6
		c-1.5,2.3-2.3,5.1-2.3,8.4c0,3.1,0.6,5.8,1.7,8c1.1,2.2,2.8,4.3,5.1,6.1c2.2,1.9,5,3.6,8.2,5.4c3.2,1.7,6.9,3.6,11.2,5.7
		c4.3,2.1,8.4,4.4,12.3,6.7s7.3,5,10.2,7.8c2.9,2.9,5.2,6,6.9,9.5c1.7,3.5,2.6,7.5,2.6,12c0,5.9-1.2,11-3.5,15.1
		c-2.3,4.1-5.5,7.5-9.4,10.1c-4,2.6-8.5,4.4-13.7,5.6c-5.2,1.1-10.6,1.7-16.3,1.7c-1.9,0-4.3-0.2-7.1-0.5c-2.8-0.3-5.7-0.8-8.6-1.3
		c-2.9-0.6-5.7-1.3-8.3-2.2C449.7,337.5,447.6,336.6,446,335.5z"/>
</g>
</svg>
