<?xml version="1.0" encoding="utf-8"?>
<!-- Generator: Adobe Illustrator 19.2.1, SVG Export Plug-In . SVG Version: 6.00 Build 0)  -->
<svg version="1.1" id="Layer_1" xmlns="http://www.w3.org/2000/svg" xmlns:xlink="http://www.w3.org/1999/xlink" x="0px" y="0px"
	 viewBox="0 0 58.1 50" style="enable-background:new 0 0 58.1 50;" xml:space="preserve">
<style type="text/css">
	.st0{opacity:0.83;}
	.st1{fill:#23AD21;}
	.st2{opacity:0.72;}
	.st3{fill:#0014FA;}
</style>
<g id="CS_x5F_LOGO_x5F_APP" class="st0">
	<path class="st1" d="M53,10.3l-7.3,12.8l-12-21.3c0.6-0.1,1.2-0.1,1.8-0.1C42.6,1.8,48.8,5.1,53,10.3z"/>
	<path class="st1" d="M38.9,15H15.1c3.1-7,9.2-11.6,16.5-12.9L38.9,15z"/>
	<path class="st1" d="M28.9,17L17.1,38.4C14.5,34.6,13,30,13,25.1c0-2.8,0.5-5.5,1.4-8l0,0h14.5V17z"/>
	<path class="st1" d="M37.5,48.1c-0.7,0.1-1.3,0.1-2,0.1c-6.9,0-13.1-3.2-17.2-8.3l7.2-13L37.5,48.1z"/>
	<path class="st1" d="M55.9,35c-3.1,7-9.1,11.5-16.3,12.8L32.3,35H55.9z"/>
	<path class="st1" d="M58.1,25c0,2.8-0.5,5-1.4,8H42.3l11.9-21C56.6,15.7,58.1,20.2,58.1,25z"/>
</g>
<g id="CS_x5F_LOGO_x5F_C" class="st2">
	<path class="st3" d="M38.4,45.9l0.1,0.1c-3.9,2.5-8.5,4-13.5,4C11.2,50,0,38.8,0,25S11.2,0,25,0c4.9,0,9.5,1.4,13.4,3.9v4.3
		c-3.6-2.9-8.3-4.6-13.3-4.6C13.3,3.6,3.7,13.2,3.7,25s9.6,21.4,21.4,21.4c5,0,9.6-1.7,13.3-4.6V45.9z"/>
</g>
</svg>
