<?xml version="1.0" encoding="utf-8"?>
<!-- Generator: Adobe Illustrator 19.2.1, SVG Export Plug-In . SVG Version: 6.00 Build 0)  -->
<svg version="1.1" id="Layer_1" xmlns="http://www.w3.org/2000/svg" xmlns:xlink="http://www.w3.org/1999/xlink" x="0px" y="0px"
	 viewBox="0 0 960 560" style="enable-background:new 0 0 960 560;" xml:space="preserve">
<style type="text/css">
	.st0{fill:none;}
	.st1{fill:#00427E;}
	.st2{opacity:0.4;fill:#9DDCF9;}
	.Jive_GS{fill:#FFDD00;}
	.st3{opacity:0.83;}
	.st4{fill:#C246BC;}
	.st5{fill:url(#SVGID_1_);}
	.st6{fill:url(#SVGID_2_);}
	.st7{fill:#00E1F2;}
	.st8{opacity:0.72;}
</style>
<metadata><?xpacket begin="﻿" id="W5M0MpCehiHzreSzNTczkc9d"?>
<x:xmpmeta xmlns:x="adobe:ns:meta/" x:xmptk="Adobe XMP Core 5.6-c111 79.158366, 2015/09/25-01:12:00        ">
   <rdf:RDF xmlns:rdf="http://www.w3.org/1999/02/22-rdf-syntax-ns#">
      <rdf:Description rdf:about=""
            xmlns:dc="http://purl.org/dc/elements/1.1/"
            xmlns:xmp="http://ns.adobe.com/xap/1.0/"
            xmlns:xmpGImg="http://ns.adobe.com/xap/1.0/g/img/"
            xmlns:xmpMM="http://ns.adobe.com/xap/1.0/mm/"
            xmlns:stRef="http://ns.adobe.com/xap/1.0/sType/ResourceRef#"
            xmlns:stEvt="http://ns.adobe.com/xap/1.0/sType/ResourceEvent#"
            xmlns:illustrator="http://ns.adobe.com/illustrator/1.0/"
            xmlns:xmpTPg="http://ns.adobe.com/xap/1.0/t/pg/"
            xmlns:stDim="http://ns.adobe.com/xap/1.0/sType/Dimensions#"
            xmlns:xmpG="http://ns.adobe.com/xap/1.0/g/"
            xmlns:pdf="http://ns.adobe.com/pdf/1.3/">
         <dc:format>image/svg+xml</dc:format>
         <dc:title>
            <rdf:Alt>
               <rdf:li xml:lang="x-default">Web</rdf:li>
            </rdf:Alt>
         </dc:title>
         <xmp:CreatorTool>Adobe Illustrator CC 2015 (Windows)</xmp:CreatorTool>
         <xmp:CreateDate>2016-05-16T22:02:01-04:00</xmp:CreateDate>
         <xmp:ModifyDate>2016-05-16T22:02:01-04:00</xmp:ModifyDate>
         <xmp:MetadataDate>2016-05-16T22:02:01-04:00</xmp:MetadataDate>
         <xmp:Thumbnails>
            <rdf:Alt>
               <rdf:li rdf:parseType="Resource">
                  <xmpGImg:width>256</xmpGImg:width>
                  <xmpGImg:height>220</xmpGImg:height>
                  <xmpGImg:format>JPEG</xmpGImg:format>
                  <xmpGImg:image>/9j/4AAQSkZJRgABAgEASABIAAD/7QAsUGhvdG9zaG9wIDMuMAA4QklNA+0AAAAAABAASAAAAAEA&#xA;AQBIAAAAAQAB/+4ADkFkb2JlAGTAAAAAAf/bAIQABgQEBAUEBgUFBgkGBQYJCwgGBggLDAoKCwoK&#xA;DBAMDAwMDAwQDA4PEA8ODBMTFBQTExwbGxscHx8fHx8fHx8fHwEHBwcNDA0YEBAYGhURFRofHx8f&#xA;Hx8fHx8fHx8fHx8fHx8fHx8fHx8fHx8fHx8fHx8fHx8fHx8fHx8fHx8fHx8f/8AAEQgA3AEAAwER&#xA;AAIRAQMRAf/EAaIAAAAHAQEBAQEAAAAAAAAAAAQFAwIGAQAHCAkKCwEAAgIDAQEBAQEAAAAAAAAA&#xA;AQACAwQFBgcICQoLEAACAQMDAgQCBgcDBAIGAnMBAgMRBAAFIRIxQVEGE2EicYEUMpGhBxWxQiPB&#xA;UtHhMxZi8CRygvElQzRTkqKyY3PCNUQnk6OzNhdUZHTD0uIIJoMJChgZhJRFRqS0VtNVKBry4/PE&#xA;1OT0ZXWFlaW1xdXl9WZ2hpamtsbW5vY3R1dnd4eXp7fH1+f3OEhYaHiImKi4yNjo+Ck5SVlpeYmZ&#xA;qbnJ2en5KjpKWmp6ipqqusra6voRAAICAQIDBQUEBQYECAMDbQEAAhEDBCESMUEFURNhIgZxgZEy&#xA;obHwFMHR4SNCFVJicvEzJDRDghaSUyWiY7LCB3PSNeJEgxdUkwgJChgZJjZFGidkdFU38qOzwygp&#xA;0+PzhJSktMTU5PRldYWVpbXF1eX1RlZmdoaWprbG1ub2R1dnd4eXp7fH1+f3OEhYaHiImKi4yNjo&#xA;+DlJWWl5iZmpucnZ6fkqOkpaanqKmqq6ytrq+v/aAAwDAQACEQMRAD8A9U4q7FXYq7FXYq7FXYq7&#xA;FVss0USF5XVEHVmIA/HCIk8mE5xiLkaCU3XmewiqIg07e3wr95/pmTDSyPPZ1mbtjFH6bklk/mm/&#xA;eoiRIh225H7zt+GXx0kRz3ddk7Zyn6QI/agZdX1OX7Vy+/ZTxH/C0y4YYDo4U9dmlzkfu+5DPNM/&#xA;23ZvmSf15MRAceWSR5krcLFwJBqDQ+IxUGlZL68iFUuJEA60cgU+/InHE9G6OoyR5SI+KAuvzU03&#xA;TCVn1WKVl6xKPWNfA+mCR9JyQ7NM+UXYYdXqum/vRnln84tG1u9ks0gkWWNeYYgKHWtDwUsTt75V&#xA;n7KlAXbsP5SlAA5I/L8fpTrzL5ruLXRnvtHMMs0BDTwXCtX0+hKhWTdep9sxcWluVSv4O17P1Wnz&#xA;zETKr+G/xYH/AMra80/yWv8AyLb/AJrzN/IY/N6H+TcfmrRfm/5iWgktrRwPBZFJ/wCHI/DAez4d&#xA;5QezMfeUxtfzkNQLvTNu7xS/8asv8cql2d3Fpl2X3ST/AE/80PKl0Qssslm57ToaV/1k5j78onoc&#xA;g83Gn2fljy3ZNZ39lexerZ3EdxH/ADxOrj/hScxZRMeYpw5QMdiKV8ixdirsVdirsVdirsVdirsV&#xA;dirsVdirsVdiqye4hgjMkzhEHVjkoxJNBhkyxgLkaDH7/wA0k1SySg/36/8ABf65mY9J/OdFqe2e&#xA;mMfE/qSKe5nuH5zSNI3ixr92ZkYgcnS5Mspm5Gyp4Wt2KuxV2KoW/wBSsNPgNxezpbxD9pzSp8AO&#xA;pPsMnCBkaAZRgZGgGB65+bCgtFo1vy7fWp60/wBjGP4n6Mz8Wg/nFz8Wg6yLB9U8w61qjE313JMv&#xA;aOvGMfJFov4ZnQwxhyDn48MIcgl2WtqL0nU7nTNRgv7c0lgYMB2YdGU+zDY5DJASiQWvJATiQXvN&#xA;jeWeq6bFdRUktrqOvE0OzCjKw9uhzQSiYSrqHQSiYyo8w8i8xQ6j5a1qWzVjJZt+8tg9SDGx2Fet&#xA;V6ZtccY5Y31es7N7ZzRiN7HcVWx1q0uqKT6Up/Ybv8j3ynJglHzD1ek7VxZtvpl3H9CYZQ7N2Kq1&#xA;reXdpMJrWZ4Jl6SRsUb7xglEEUWMoiQoi2aaH+a+sWnGLU4xfw9PUFI5QPmBxb6R9OYWXQRP07OB&#xA;m7NhLeOz0jQvNGi65FzsLgNIBV7d/hlX5r/EbZrMuCUOYdTm088Z9QTXKmh2KuxV2KuxV2KuxV2K&#xA;uxV2KuxVLNV1y3sgY0/e3H8g6L/rH+GZGHTme/R12t7Rhh2G8/xzYrd3tzdyepO5Y9h2HyGbGGMR&#xA;FB5jPqJ5Tcjahkml2Kou00q/u6GGI8D/ALsbZfvOVzzRjzLlYNFly/SNu/om9t5SGxuZ/msY/wCN&#xA;j/TMaWs7g7XF2J/Pl8v1/sTKHQNKi/3TzPi5J/DplEtRM9XYY+zMEf4b97E/NPn7RdHL2ekwQ3N+&#xA;uzOFHpRn3I+03sPvzJwaac95E07rSdkRO5iIx927y/UtV1DU7k3F9O00p6V2Ar2VRQKPlm0hARFB&#xA;3+LDHGKiKCCZEb7Sg/MVyYLIwB5hRksLGT7cEZ9+IB+8ZMZJDq0T0eGXOEfkhJvL2nSfYDRH/JNR&#xA;/wANXLI6mY83By9i4Jcrj7j+tLrjy1cpUwOso/lPwt/TL46oHns6zP2FkjvAiX2Fln5Z61PZXb6F&#xA;fAxpOTJaF9qOB8Sj/WAqPf55RrMYkOOLyvaejnD1SBBZJ5+8u/pjRWeFOV9Z1lgoN2FPjT/ZAbe4&#xA;GY2kzcEt+RcDS5uCW/IvF83bvGZ6axawtyxJJjWpPyzU5fqL3uhJOGBP80InK3KdirsVVILie3mS&#xA;aCRopozVJEJVgfYjAQCKKDEEUXpHlP8ANOpSz16g/ZS/Uf8AJ1R/xIfd3zW6jQ9YfJ1Op7O6w+T0&#xA;qORJEWSNg6OAyupqCD0IIzWEOpIpvFDsVdirsVdirsVdirsVSHW/MHpcrazasnSSUb8fZffMzBp7&#xA;3k6TtDtPh9GPn1LGSSSSTUnck5nvOE27FUVYaXd3r0hX4B9qRtlH05XkyxhzcrTaPJmPpG3f0ZNY&#xA;eXrG2AaQevKP2nHwg+y/1zAyamUuWwei03ZePHufVLz/AFJpmO7JpmVVLMQFAqSdgAMVeU+efzGl&#xA;u2k03RpDHaCqz3amjS+IQ9k9+/y67bS6OvVLm7rR6ER9U+fc8/zYO0dirsVdirsVdiraMUkSQU5x&#xA;sHQkVoymoOFry4YZImMxcS9h0i0t9d0WHU9PYJKw43FsTULKv2lBPTxFexzVSzHHLhl83z7tLsHg&#xA;mfD+ReHfmV5Wm0PXXkERjtrwmRFIoFf9tflU1Hsc6LRagZIe5xNPKVcMhUoqumf8c+3/AOMa/qzF&#xA;y/UX0XQf3EP6oRWVuW7FXYq7FXYqyvyX57vNClW2ueU+lMfii6tHXq0dfxXMTU6UZNx9TharRjIL&#xA;G0ns1le2t9ax3dpIJreYco5F6EZppRMTR5ugnAxNHmrZFi7FXYq7FXYq7FUh8wa36XKztm/eHaWQ&#xA;fs1/ZHvmZp8F+ouk7T7Q4f3cOfUsZzPecdiqeaP5dacLPdgpCd1j6M3z8BmJm1NbR5u50PZZn6sm&#xA;0e7vZNHHHGgSNQiLsFAoBmASTzejjERFAUF2Bk7FXk/5i+emvJJNH0ySlmh43U6n+9YdVUj9gd/H&#xA;5ddto9Lw+qXN3eh0fD65c+jAM2Ds3Yq7FXYq7FXYq7FXYqzD8tPMv6K1n6nO9LK/IRieiS/sN9P2&#xA;T/ZmHrcPHGxzDga/Bxwsc4vR/PHlGx80aDPp86gTgc7SboySr9nfwPQ+2a7SamWGfEOXV544oSI4&#xA;h+t4NHZy2SCzlBEtv+6kBFCGTYgjN/KfEb73qtNj4McYg3QXZFudirsVdirsVdirKPI/nObQLz0Z&#xA;yZNLnYevHueB6eog8fEd8xdVphkFj6nD1elGUWPqD2yGaKeFJoXEkUih43U1DKRUEHNIRRovPEEG&#xA;ivwIdirsVdiqWa5qosrfhGf9Il2T/JHdv6ZkafDxnfk67tHW+DCh9Z/FsOJJJJNSdyTmzeSJt2Ks&#xA;j0HQhRbu6Wtd4oj/AMSb+GYWo1H8MXf9m9ncskx7h+lkOYLv3Yq7FWDfmZ5uOnWf6Jsnpe3S/vnX&#xA;rHEdvoZ/1fRmfotPxHiPIOy0Gm4zxHkHkObd3jsVdirsVdirsVdirsVdirsVe5eQfMn6b0NDM/K+&#xA;taRXXiaD4X/2Q/GuaLVYeCe3IvOa3B4c9uRYd+a/lv6veJrduv7m6IjugP2ZQPhb/ZqPvHvmboM1&#xA;jhPRz+zc9jgPTk8+zYO0dirsVdirsVdiqN0XSbnVtUt9Ptx+8nahbsq9WY+yjfIZMghEkteXIIRM&#xA;j0fQWnWFvp9jBZWy8YLdBGg70Hc+56nOenIyJJeYnMykSeZRGRYOxV2KrLieOCF5pDREFWOSjEk0&#xA;GGXIIRMjyDBb27ku7l55OrHYeA7DNvjgIig8VqM5yzMj1UMk0p35e0gXDi7nFYUP7tT+0w/gMxdT&#xA;mr0jm7jsvQ8Z8SX0jl5spzXPTOxV2KoPWdVt9K0y41C4P7uBOVO7N0VR7sxpk8cDOQAbMWMzkIjq&#xA;+fdT1G51K/nvrpuU87l3PYV6AewGwzoYQEQAHp8cBCIiOQQ2SZuxV2KuxV2KuxV2KuxV2KuxVPvJ&#xA;fmJtC1yK4cn6pL+6u1/yGP2qeKnfKNTh8SFdXG1eDxIV16PbdT0+01bS5rKaj290lOS79d1dfkaE&#xA;Zo4TMJWOYeexzMJAjmHz9qmm3Om6hPY3K8ZrdyjeB8GHsRuM6GExIAh6fHkE4iQ6oXJM3Yq7FXYq&#xA;7FXrX5V+WvqentrFwlLi8HG3B6rDXr/sz+FM1GuzWeEcg6TtHUcUuAch96z81PND2lvFo9nIVuJq&#xA;S3LqaFUU1RajoWYV+Q98OhwWeI8k9nafiPGeTIvJXmNdd0SO4cj63F+6u1H86j7VPBhv+GY+pw+H&#xA;OujiavB4c66dE+zHcZ2Ksc8039Slkh2Hxy/8aj+OZ2kx/wATz/bOp5Yx7z+hj2ZroUTp1i97dpAu&#xA;wO7t4KOpyGXJwxtyNJpzmyCI+PuZzFFHFGscY4ogAUDwGagkk2XtIQEQAOQXYGTsVdirDPzF0bzJ&#xA;rUdtZaZCHs0JlnYyInJ+irRiPsip+n2zN0eSELMubsNDlx47MjuwX/lWPnH/AJZE/wCR0f8AzVmf&#xA;+dx97sf5Qxd/2O/5Vj5x/wCWRP8AkdH/AM1Y/ncfev8AKGLv+x3/ACrHzj/yyJ/yOj/5qx/O4+9f&#xA;5Qxd/wBjv+VY+cf+WRP+R0f/ADVj+dx96/yhi7/sd/yrHzj/AMsif8jo/wDmrH87j71/lDF3/Y7/&#xA;AJVj5x/5ZE/5HR/81Y/ncfev8oYu/wCx3/KsfOP/ACyJ/wAjo/8AmrH87j71/lDF3/Y7/lWPnH/l&#xA;kT/kdH/zVj+dx96/yhi7/sd/yrHzj/yyJ/yOj/5qx/O4+9f5Qxd/2O/5Vj5x/wCWRP8AkdH/AM1Y&#xA;/ncfev8AKGLv+x3/ACrHzj/yyJ/yOj/5qx/O4+9f5Qxd/wBjv+VY+cf+WRP+R0f/ADVj+dx96/yh&#xA;i7/sem+SbbXrPRUsdYiCS2p4QOHV+UX7IPEndenypmr1MoGVx6uo1coSnxQ6sd/Nfy169qmt2yVl&#xA;twI7sDqYyfhf/Yk0PsfbMnQZqPAerldm56PAevJ5Vm1d07FXYq7FU78n+Xn13W4bQg/Vk/eXbjtG&#xA;p3FfFvsjKdRm8ON9XH1Wfw4E9ej3DUb+y0fSpbuUCO1tI6hF22Gyoo9zQDNFCJnKupedxwOSVDmX&#xA;z9qupXOp6jPf3Lcprhy7eAHZR7KNhnQ44CMQA9PjxiEREdE//LnXzpXmGOORqWl9SCavQMT+7b6G&#xA;2+ROY+sxccPMONrsPHj8w9uzRvOrZpUiieVzREUsx9gK4YizTCcxGJkeQYDczvcTyTP9qRix+ntm&#xA;5jGhTxGXIZyMjzKnha2XeW7D6vZes4/ez/F8k/ZH8c1uqyXKu56nsnTcGPiPOX3dE2zGdq7FXYqs&#xA;nniggknmYJDEpeRz0CqKkn5DCBZoJAJNBIf+Vg+Tv+rkn/ASf805f+Uydzk/ksv813/KwfJ3/VyT&#xA;/gJP+acfymTuX8ll/mu/5WD5O/6uSf8AASf804/lMncv5LL/ADXf8rB8nf8AVyT/AICT/mnH8pk7&#xA;l/JZf5rv+Vg+Tv8Aq5J/wEn/ADTj+Uydy/ksv813/KwfJ3/VyT/gJP8AmnH8pk7l/JZf5rv+Vg+T&#xA;v+rkn/ASf804/lMncv5LL/NVIPPXlSeeOCHUFeaVgkaBJKlmNAB8PjidLkAshB0eUCyE9zHcZ2Kp&#xA;NqvmzSNPqpZrqYGhht+LMPGrMyJt4cq5bhwSyfSNu/p+34Ou1Xa2nwmpSuXcN0ruPzAiDr9WsWkj&#xA;IqxlkEbBvCirKPxzJ/k+fePx8HWy9pcPSMvs/WiofPejvIqSRzwqRVpWUMoIHSiMzn6FyMtDkHcW&#xA;/F7Q6aRo8UfeP1Wmx1zRxbrcG9hELNwD81py2qPYiu/h3zG8OV1Rt2h1WLhEuKPCethFTwRTwyQT&#xA;KHhlUpIh6FWFCD9GRBo2HJBINh4D5p0GbQ9ansXqYgedvIf2om+yf4H3zoMGXjiC9Np8wyQEkpy1&#xA;vdirsVe3/l75a/QuiK8ycb69pLcV6qKfBH/sQd/cnNHq83HLbkHndbn8Se3IMR/NfzJ9YvE0S3f9&#xA;zbEPdkdGlI+Ff9iD959szNBhocR6ud2bgocZ68nn2bB2jgSDUdcVe/8AlHWP0v5es71jWYpwn8fU&#xA;T4WP00r9Oc/qMfBMh5jU4uDIQ7zPdelYCIH4p2p/sV3P8Ms0sLlfc6LtjNw4uH+cWJ5sXl0Rp9qb&#xA;q9ig7O3xf6o3P4ZDJPhiS36XD4mQR72eAAAACgGwGad7YCnYpdirsVYl+Z+qGy8ryQoaSXrrAPHj&#xA;9p/wWn05maKHFkvuc7s/HxZL7niubp6B2KuxV2KuxV2KuxV6F+VHlv6xdvrdwlYrYmO1B6GUj4m/&#xA;2IP3n2zX6/NQ4R1dX2lnocA683qual0rDdf1u81C/wD0PppIUsY5HXYuf2hXsg3r/TM7BgjGHiT3&#xA;HQfj7OnX3ct2l2hkzZfy+Hvon7/gOv4s20zyhpNrEv1iJbqenxtIOSVIoQEPw0+eU5NVkkbuvc7L&#xA;Sdi4MQ3HHLvP6uSM/wAPaDQgadbLUUqsKKd/AgAjKxln3n5ucdFhPOEf9KEm1LyJZuhbTpDbygbR&#xA;SMXjPX9o8nBJpvU/LMrFrpx+rcOo1fs/imLx+iX2fj8Uw24tp7aZ4LiMxTJs8bUqPuqD9GbXHkjM&#xA;WHj9Rp54ZmExRep6bdNd6da3TAK1xDHKyjoC6hqd/HOdlGjRfTMOTjgJd4BYx+ZXlr9K6MbuBK3t&#xA;gDIlOrR/tr+FR/bmXo83BKjyLstBn4J0eUni+bp6B2Kst/Lfy1+l9aFzOlbGwIkkr0aT9hPvFT7f&#xA;PMTWZuCNDmXB12fghQ5l6n5q1+LQ9FnvWoZqcLZD+1K32foHU+2arBi8SVOm02E5JgPApppZpXml&#xA;YvLIxeRz1LMakn5nOgArZ6YAAUFmKXYq9N/J3UyVv9MZunG5iX5/BJ/xrms7Rhyl8HUdqY+Uvgn/&#xA;AJpn536RA7RINvdtz+FMjpI1G+94HtnJeUR/mj70mzKdQn/lO35TTXBH2AEX5tuf1Zh6yWwDvOxM&#xA;VylPu2ZLmA9E7FXYq7FXlf5xX3PUdPsQdoYmmYe8jcR/ybza9nR9JLuuy4ekyeeZsXaOxV2KuxV2&#xA;KuxVFaXp1zqWoW9jbDlNcOEXwHix9gNzkZzEQSejDJMQiZHo+gtJ0y20vTbewthSK3QKD3J6sx92&#xA;O5znskzKRJeXy5DORkereq3BttMup1bi8cTlG/yqHj+OCMbIHea+biavKceKUhzjEn7GF+R1iOtM&#xA;XpyWFzHXryqo2/2JObTtAege/wDQXkPZyjqDfPhP3hn2al7d2KuxVjvnTSkudNN6i/6RafEWG1Yq&#xA;/GDUgUX7f0bdcy9Hl4J10Lpu3NGMuEyA9UN/h1RflK4ln8vWjymrKHjBFB8McjIo28FUZXqY1kPv&#xA;cjsnIZaaBPdXy2TfKHYvDvzA8t/oTXGMKcbG7rLbU6Lv8cf+xJ+4jN7pM3HDfmHotFn8SG/MMchh&#xA;lnmSGFS8srBI0HUsxoAMySaFlyyQBZe++VdAi0PRYLJaGanO5cftSt9r6B0HtnP58viSt5nU5jkm&#xA;S8s/MfzL+l9aNtA9bGxJjjodmk/bf7xQew982ujw8EbPMu50ODghZ5liWZbnOxV2Ksn/AC3vfqvm&#xA;6zBNEuA8D/7JSV/4YDMbWRvGfJw9fDixHyZvq8vq6nct1+MqPkvw/wAMpwioB8p10+LNI+f3bITL&#xA;HFZf5ah9PS1bvKzOfv4/8a5rNVK5vV9k4+HAD3kn9Ca5juzdirsVdirxH8zLkzecLxa1WFYo1/5F&#xA;qx/Fjm80QrGHotBGsQYtmU5jsVdirsVdirsVepflN5c9K3k1y4X45qxWgPZAfjf/AGRFPo981evz&#xA;WeAOm7Sz2eAfF6LmtdUhNXtzcaVdwhS7PE/BR1LAVXp75KEgJAnob+TjazGZ4ZxHMxP3PM9PvpbG&#xA;8iuovtxGtD0IOxH0jbN/nxDJExfOtJqZYMgmOj0vTNWstRgEts4JoOcZ2dCezDNDOBgaPN9F0usx&#xA;548UDf3j3ozIOS7FXYq0iJGioihEQBVVRQADYAAYoApvFKR+c/Lq67octsoH1uP97aMdqSKOlfBh&#xA;tl+mzeHO+jk6XP4c76dWD/lX5XeW+k1i7jKpaMYrZGFKzdGah/kG3z+WZ2uz0OEdXY9o6io8A6ss&#xA;/MLzL+hdEZIX4317WK3p1UU+OT/Yg7e5GYmkw8ct+QcHRYPEnvyDxDN49E7FXYq7FUdoVx9W1uwu&#xA;K09K4icnpsrgnIZRcSPJrzRuBHk9HmfnM79eTE/ea5jRFB8ZySuRPmtwsWdaUnDTbYf8Vqf+CFf4&#xA;5qMxuZ972mijWGP9UIrK3KdirsVdirwPzrJ6nmzVG32nZd/8n4f4Z0GmH7se56bSCsUfckmXOQ7F&#xA;XYq7FXYqmflvQ5tb1i30+KoVzymcfsRruzfd098rzZRCJLTnzDHAyL6AtreG2t4reBAkMKiONB0C&#xA;qKAZzxJJsvMSkSbKpgQ7FWB+afLctpO97apys5CWdVH90T12H7Ph4dM2mj1QoQl8P1fj73i+2eyZ&#xA;QkcuMXA7ny/Z9zHo5ZYnEkTtHIu6upIIPsRmwlASFEW8/DJKBuJIPknVn5y1u3Cq7pcICKiVatxH&#xA;WjKVNfc1zDn2fA8iR9v4+butP7QZ4bSqY8+fzH7WQad54024ZY7tGs5G25E84qk0A5gAjxJZQB45&#xA;h5NFOPLcO/0vb2DJtL0Hz5fP9dMhjkjkjWSNg8bgMjqQQQRUEEdQcw3dAgiwuxS7FXYqp0gt4nYB&#xA;Yol5SOQAqipLMx+ZqScO5TuS8H84eYX13W5rsE/Vk/d2iHtGp2NPFvtHN/p8Phxrq9LpcHhwA69U&#xA;ky5yHYq7FXYq2rMrBlNGU1B9xir1LMR8TdirPrH/AHit/wDjGn/ERmnyfUfe9xp/7uP9UfcrZBud&#xA;irsVdirwHzirL5q1UEUP1mQ/QTUZ0Gn/ALuPuen0v91H3JNlze7FXYq7FXYq9j/LDy3+jdI/SM6U&#xA;vL8Blr1WHqg/2X2j9GabW5uKXCOQdD2hn458I5R+9mmYTr3Yq7FXYqkWp+TtLvCXhH1SY94xVD80&#xA;2H3Uy/FqckOR27j+P2eTp9Z2JgzbgcEu8fq/sYvqHlHWbQM6x/WY1FeUNWb5cKcifkDmwxdoRO0h&#xA;wn5j8fCnm9T2BqMe8fWPLn8v1WkgIJYA7oSrDwZTQg+4zOBBFh00oGJoiimWja9faTITB+8t2NZb&#xA;Zj8Le6/yt7/fXbMbUaUZBY2l+ObtOze1cmnNc8fd+p6PZXtte2kd1bOJIZRVWH3EEdip2I7HbNJK&#xA;JBo83vsWSM4iUTYKvgZuxVgf5qeZfqenro9u1Li8HK4I6rDXp/syKfKuZ+hw2eI8g7Ps7BxS4zyH&#xA;3vJM27u3Yq7FXYq7FXYq9TIIJB6jY5iPiZFOxVnunsGsLZh3iQ/8KM0+T6j73t9MbxRP9Efcr5Bv&#xA;dirsVdirwr8woDD5x1FabMyOPfnGrfxzfaQ3jD0miN4osdzIcp2KuxV2Ksg8j+XDrmuRQyKTZwfv&#xA;bs9igOyf7M7Zj6nNwQvq4urz+HC+p5PYPNOuw6Doc16aeoB6drH2aRh8I+Q6n2GafBiOSdOi0+E5&#xA;JgfND+SfMg13RI55CPrkP7q7UfzgbNTwYb5LU4fDlXRnq8Hhzrp0T/MdxXYq7FXYq7FUDqWiaXqQ&#xA;/wBLt1eQAKsw+GRQDyoHWjUr2rQ5OGSUDcTTj6jS48wqcQfx3sD8weX5dHmjHqGa1mqIZmFG5AVK&#xA;OQAvKm4pSu+22bjS6rxNj9TxXa3ZX5YiUd4H7Cnn5fXE5jvrZqehG0ckZqSeUgYONzQL+7Uig6k5&#xA;idoQAkD3u59m85ljlA/wn7/7GXZr3pEPqN/bafYz3ty3GC3Qu570HYe56DJQgZEAM4QMpADmXz7r&#xA;WrXOrapcahcH95O1QvZV6Ko9lG2dDjxiEQA9PixiEREdEFk2x2KuxV2KuxVE6bAbjUbWAbmWaNAP&#xA;9ZgMjM1ElhkNRJ8nqF7H6d5PH/LIw+4nMTGbiC+OaiPDkkO4lRyTSzbQpPU0q3PgpX/gSR/DNVqB&#xA;Uy9j2dPiwRR2Uua7FXYq7FXj/wCbdoYvMkVwB8NzbqSf8pGZT+FM3GglcK7i73s2V467iwjM52Ls&#xA;VdirgCTQdcVe6eQvLg0TQo1lWl7dUmuj3BI+FP8AYD8a5otVm45+Qec1mfxJ7chyed/mX5k/SmtG&#xA;zgatlYExrTo0vR2+inEf25sdFh4I2eZdroMHBCzzkgfIvmQ6HrkckjUsrmkV0OwUn4X/ANid/lXL&#xA;NVh44eYbNZg8SHmOT3UEEAg1B3BGaF5tJfNt7fWemJPZuY3WZebAA/DQ9a1/aplmHGJzETe/6i6v&#xA;tjUZMOHjxmiCPkmdjdpeWcNylOMqBqA1oSNx9B2yvfkebn4coyQExykLV8W12KuxVIPPKp/hudyB&#xA;ySWAoxAJUtOiGngSrFa++ZGlJGQOs7YiJaWd936Un8gQwvqF5PU+tBEiBduPGZiST71hzL7RP0/H&#xA;9DpvZiH1y936Wb5rHrHl/wCbHmX1Jo9Ctn+CKkt6R3c7on0D4j9Hhm00GHbjPwdz2bgocZ+DzjNk&#xA;7V2KuxV2KuxV2Kp/5Cszd+bdOSlRHJ6zHw9JS4/FRmPqpVjLjayXDik9F8ww+lqsu1BJRx9I3/HM&#xA;XTSuAfLO1MfDnPnul2XuvZR5Un5WksJ6xvyHyYf1Ga/WR9QL0nYuS8Zj3H708zEd07FXYq7FWAfn&#xA;Bp3q6VZ36irW0pjc/wCTKK1P+yQffmw7PnUiO92fZk6kY97yfNs7t2KuxVmH5aeW/wBKa0Lyda2d&#xA;gRIajZpf2F+j7R/tzD1ubhjQ5lwNfn4IUOcnofn3zH+hNCdompe3VYbXxBI+J/8AYj8aZrtLh45+&#xA;QdXo8HiT35Dm8MzevRuxV7H+WHmX9JaSdOuHreWACqT1aHop/wBj9n7s02tw8MuIci6HtDT8EuIc&#xA;pfeybXLQ3mk3VuAWZoyUUdS6/Eo/4IDMMT4SJd2/497pdbg8XDKHePt6faxHyp5jWxb6ndsfqjms&#xA;b9fTY9a/5JzZa3Sknjjv3j9I/V8vPlexO1hi/dZD6Oh7v2fcztWV1DoQysAVYGoIPQg5rAbezBtv&#xA;FLsVYV5211Jiul2zckRuV44oVLKfhi77q3xN4EAeNNhosO/GdgHmO3teCPAhvI8/1e+088p6RJpu&#xA;l0nHG6uGMsy1B47URKgDoo3G/wARNDTMfU5fEnY5O17K0f5fCIn6jufereZNcg0TR57+WhZBxhQ/&#xA;tyNsq/19shhxGcgHcYMJyTEXz/c3M9zcS3E7mSaZi8jnqWY1JzoIgAUHp4xAFBTwpdirsVdirsVd&#xA;ir0H8ntP9TU72/YfDbxCJD/lSmpp8gn45r+0J+kB1fak6iI97NPNtv8A3FwB4xsfxX+OY+jlzDw3&#xA;beL6Z/D8fax3M10CaeW7r0dSVGNFmBQ/Pqv9Mx9VC4e52fZObgzV0lszDNY9W7FXYq7FUs8zaV+l&#xA;dBvbACrzRn0q/wC/F+JP+GAy3Dk4Jgt2nycExJ89kEEgihGxBzoXqHYqvhhlnmSGFS8srBI0HUsx&#xA;oAMSaFlBIAsvffK+hQ6FokFkKeoo9S5k/mlbdjXwHQewzn8+U5JW8zqMxyTJeP8AnjzGdc12WaNq&#xA;2cFYbQdiind/9md/lTNxpcPBCurvdJg8OFdTzY/mQ5TsVTLy9rU+i6vb6hDU+m1JUH7cZ2ZfpH45&#xA;XmxicSC1Z8QyQMS+gLS7gu7WK6t3DwToHjYd1YVGc9KJBovMSiYmjzYRq/k3UIJnksV9e2JLKoID&#xA;qOtCD19qZsdLrRGIjPp1/HX8bcniu0OwcomZYvVE9OoQFpqmuaM4QepClam3mU8T3+y1KV9suliw&#xA;ZTsRxeR3+ThYNZq9JtREe6QNfj3Jmvn3UAPitoSfEcgP1nKJdnH+dt7v2uxj7Sz6wBPvWzav5u1Z&#xA;VS0gkijau8CmMNSh3mc/DSnZhX3wQx4IbylxH8fjdlLWa/U7QjwDv5faf0JroHk2GxdLm9KzXMZr&#xA;FGn91GR0IqAWYdQaCnhtXKtRqzPYbRdl2b2LDAeOfqyfYPd+tkuYju2Fee/KXmPzFcwLaz20Vhbr&#xA;VY5XkDNI32mIWNh02G+Zul1EMYNg2XYaPU48QNg8RYt/yqDzL/y02X/By/8AVLMv+UIdx/Hxc3+U&#xA;8fdL7P1u/wCVQeZf+Wmy/wCDl/6pY/yhDuP4+K/ynj7pfZ+t3/KoPMv/AC02X/By/wDVLH+UIdx/&#xA;HxX+U8fdL7P1u/5VB5l/5abL/g5f+qWP8oQ7j+Piv8p4+6X2frd/yqDzL/y02X/By/8AVLH+UIdx&#xA;/HxX+U8fdL7P1u/5VB5l/wCWmy/4OX/qlj/KEO4/j4r/ACnj7pfZ+t3/ACqDzL/y02X/AAcv/VLH&#xA;+UIdx/HxX+U8fdL7P1s98j+WZvL+jta3DJJdSytLK8RJXcBVALBT0XwzX6nMMkrHJ1mr1Ayzsck1&#xA;1e0+tafLEBVwOSf6y7/j0yGGfDIF1WuweJiI69GD5tnjG0dkdXU0ZSCp8CMSLTGRBsM8sbpbq0in&#xA;X9sbjwI2I+/NPkhwyIe202YZcYkOqvkG92KuxV2KvEfzG0I6X5jmkjXja31biGnQMx/eL9Db/IjN&#xA;5o8vFDzD0WhzcePzGzFsynMeg/lR5b+sXj61cL+5tSY7UHoZSPib/YKfvPtmv1+ahwjq6vtLPQ4B&#xA;15sj/M7zJ+jdH+oQPS81AFTTqsI+2f8AZfZ+/MbRYeKVnkHF7Pwcc+I8o/e8bzcu+dirsVdir038&#xA;p/MtVfQbl9xWWyJ8Orx/8bD6c1mvw/xj4uo7S0/8Y+L0HUtQg06xmvZwxhgXnJwXkwWu5oPDqc10&#xA;IGRoOrxwMpADqxn/AJWp5S/35N/yKP8AXMr8jkcv+Tsvk7/lanlL/fk3/Io/1x/I5F/k7L5O/wCV&#xA;qeUv9+Tf8ij/AFx/I5F/k7L5O/5Wp5S/35N/yKP9cfyORf5Oy+Tv+VqeUv8Afk3/ACKP9cfyORf5&#xA;Oy+Tv+VqeUv9+Tf8ij/XH8jkX+Tsvk7/AJWp5S/35N/yKP8AXH8jkX+Tsvk7/lanlL/fk3/Io/1x&#xA;/I5F/k7L5O/5Wp5S/wB+Tf8AIo/1x/I5F/k7L5O/5Wp5S/35N/yKP9cfyORf5Oy+Tv8AlanlL/fk&#xA;3/Io/wBcfyORf5Oy+Tv+VqeUv9+Tf8ij/XH8jkX+TsvkjNJ8/wDl/Vb+KxsjM9xLXiDGQAFBJJPb&#xA;YZDJpJwFlhk0U4R4jVMjzGcR2KsK1yy+qag4UUik+OP5HqPoObXBk4ovH9o6fwsprkdwgMucFPPL&#xA;Go+lMbSQ/BKax17P4fTmJqsdjiHR3PZGq4ZeGeUuXv8A2sozXvSuxV2KuxVjfn7y6db0GRYV5Xtr&#xA;Wa2p1JA+JP8AZD8aZk6XNwT35Fy9Fn8Oe/IvFdN0651HUILG2Ws9w4RAegr1J9gNzm7nMRBJegyT&#xA;EImR5B7/AGFnYaHo0durCO0soiXkbbZRV3b3O5Oc/ORySvqXmZylknfUvC/M2uS63rNxfvUI54wR&#xA;n9mJdkX7tz75vcOIQiA9Hp8IxwEUry1udirsVdiqvZXlxZXkN3btwngcPG3uprglESFFjOIkCDyL&#xA;3/RNVtNc0aG8QBorhOM0R3Abo6EfPOey4zCVdzzGbGccyO54r5x8uvoWtzWoB+qyfvbRz3jY7Cvi&#xA;p2ObvT5vEjfV6HS5/EhfXqkeXuQ7FXYq7FXYq7FXYq7FXYq7FXYq9W/Kby6bezl1q4Skt1+7ta9R&#xA;ED8Tf7Jh+Hvmq1+azwjo6XtLPZ4B05vQc1zq3Yqluvaf9csiUFZoatH7+K/Tl+nycMvIuv7S0vi4&#xA;9vqjyYbm0eRcrFWDKaMDUEdQRioNGwzXRtTW+tQWNJ46CVf+NvpzVZ8XAfJ7DQasZob/AFDn+tH5&#xA;S5zsVdirsVSHTfJ2m6f5ivNZhHx3I/dxU2jZiTKV/wBfb5b5kT1EpQET0cnJqpSxiB6Ma/NjzJ6N&#xA;rHolu/724pJdkdowfhT/AGRFfkPfMnQYbPGejl9m4LPGenJ5Xm1d07FXYq7FXYq7FWb/AJXeZf0f&#xA;qh0u4elpfECOvRZui/8AB/Z+7MHXYeKPEOYdd2hp+KPEOY+5nX5geWv03ojGFeV9Z1ltqdW2+OP/&#xA;AGQH3gZg6TNwS35F12iz+HPfkXh2bx6J2KuxV2KuxV2KuxV2KuxV2Kp15R8uT69rEdotVtk/eXco&#xA;/ZjB3FfFugynUZhjjfVx9TnGKF9ej3qCGKCGOCFAkUShI0XYBVFAB9GaAmzZeaJJNlfgQ7FXYqxP&#xA;zFpf1ef6zEP3Ex+ID9l/7c2Wmy8Qo8w8v2ro/Dlxx+mX2FJ8yXUq9lezWdws8R3GxXsR3ByOSAkK&#xA;Ldp9RLFMSizaxvYLy3WaI7HZlPVT4HNTkxmJovY6fURyw4oq+Qb3Yq7FXYq8R/MTRdUsfME93dsZ&#xA;oL1zJb3FNqf77PgUFB8s3mjyRlAAdHotDljLGAOYYtmU5jsVdirsVdirsVbVmVgykhgagjYgjFXu&#xA;3kjzGuu6HHM5H1yCkV2v+WBs3+yG+aHU4fDnXR5vV4PDnXQ8nnH5leWv0VrP1yBKWV+S6gdEl6uv&#xA;48h/Zmy0WbjjR5h22gz8cKPOLD8zHOdirsVdirsVdirsVdiqvYWN1f3kVnaRmW4mYLGg7n+AHc4J&#xA;SERZ5MZzERZ5PdvKflm28v6WtrHR7iSj3U/d3p2/yV6DNDnzHJK+jzep1Byyvp0TrKHHdirsVdiq&#xA;yeCKeF4ZV5RuKMMMZEGwwyY4ziYy5FhOp6dLY3BjfdDvHJ2Yf18c22LKJi3jtXpZYZ0eXQoTLHFR&#xA;On6jcWM3qRGoOzoejDIZMYmKLk6XVTwyuPxHezKw1C2vYfUhbcfbQ/aU++avJjMDRes02qhmjcfk&#xA;icrcl2KuxVCarpVjqtjJZXsYkgkH0qezKexGTx5DA2GzHklCVjm8Q81+Ur/y9eFJQZLOQn6tdAfC&#xA;w8D4MPDN5g1AyDzeh02pjlG3PuSLL3JdirsVdirsVdirIvIvmQ6HrkckjUsrmkV0OwUn4X/2J3+V&#xA;cx9Vh44eYcXWYPEh5jk9g8y6HBruizWLEcnHO3l6hZF3Rvl2Ptmmw5TjlbotPmOOYk8BuLea2nkt&#xA;50Mc0LFJEPUMpoRnQAgiw9NGQIsKeFLsVdirsVdirsVVrKyur26jtbSJpriU8Y416k4JSERZ5MZz&#xA;ERZ5PafJHkq38v23rTUl1OZaTSjog68E9vE980mp1JyGh9Lz+r1Zymh9LKMxXDdirsVdirsVdiqH&#xA;vrGC9gMMw26qw6qfEZPHkMTYaNRp45o8MmGX+nz2U5ilG3VHHRh4jNrjyCYsPIanTSwy4Zf2obJu&#xA;OqW9zPbSiWFyjjuP1HBKIkKLZiyyxy4omiyjTPMdvc0juKQzdK/sN8j2+nNfl0xjuNw9JpO1YZNp&#xA;+mX2JxmK7Z2KuxVQv7Czv7WS0vIlmt5RR426f2H3yUZmJsc2UJmJsc3kfm78t7/Si93pwa707qwG&#xA;8sQ/ygPtD/KH05t9PrBPaWxd5ptfGe0tpMLzNdg7FXYq7FXYq7FXr/5bea4rvRWsr2ULc6eAAzn7&#xA;UPRD81+z92ajWacidgc3nu1MccR4ztE/ewL86AxnXV9LQpDLSK9l6NzAojgdgw+Gvy8c2nZcNuGf&#xA;Po6SHb8pA4sew7+vw/FsU0z/AI59v/xjX9WX5fqL2Og/uIf1Qicrct2KuxV2KppoHlrVtduvQsYq&#xA;qtPVnbaOMH+Zv4DfKsuaOMWWnNnjjFyey+VfJ+m+XrekI9a8cUnu2HxH/JX+Vfb7802fUSyHfk6D&#xA;UaqWU78u5Psx3GdirsVdirsVdirsVdiqjd2dvdwmGdeSnoe4PiDk4TMTYac+COWPDIbMQ1TRrmxe&#xA;pHOA/ZlH6m8DmyxZxP3vK6zQTwnvj3/rQGXOC7FUfYa3fWdFVvUiH+633H0HqMpyYIy97nabtDLi&#xA;2BuPcU/s/Mmnz0EpMDns26/8EP45hz0shy3d5g7WxT+r0n8dU1SRJFDIwdT0ZTUfhmORTsoyEhYN&#xA;hvAydirEfMv5b6Nq5e4tv9Avm3MkYrG5/wAtNt/cfjmZh1kobHcOdp9fOGx3DzHXvJuv6IxN3bl7&#xA;cdLqKrxH5mlV/wBkBm0xaiE+R3dxh1UMnI79ySZc5DsVUp7q2gWs0ioPc7n5DJxgZcg05tRjxi5k&#xA;BKbvzLGtVtU5n/fj7D6B1zJhpT/E6XU9uxG2MX5n9SE0nzJqFhrEGol2kMTfHHWgZDsy06bjL54I&#xA;mJi81rck9QDxm/0Pa5Y9P1rSChpLZX0WxH8rioI8CPwOaUEwl5h5sEwl5h57NpVzpTiwuB+8gVQG&#xA;7MpFVYezDfMg5BM2H1rsvIJ6aBH80LMDnuxVE2Gm3+oTiCxt5LiY/sRqWoPE+A9zkZzERZNMJ5Ix&#xA;Fk09B8u/lK1VuNdloOv1KE7/ACeQfqX781+bX9IfN1eftLpD5vR7OytLK3S2tIVggjFEjQAAZrZS&#xA;MjZdVKZkbO5VsixdirsVdirsVdirsVdirsVdirTKrqVYBlOxB3BGIKCARRSDUvLCtWWxPE9TCx2/&#xA;2J/rmbi1XSTo9X2Pfqx/L9THpoJoZDHKhRx1VhQ5mxkCLDocmOUDUhRWYWDsVXxTzwtyikaNvFSR&#xA;+rAYg82cMkoG4khMIfMeqx7GQSDwdQfxFDlMtNAudj7Vzx6370Unm25H24EY/wCSSv6+WVnRjoXK&#xA;j23PrEKo83iu9pt/xk/5tyP5PzbB25/Q+39jTebiRQWg38Xr/wAa4/k/NB7c/ofb+xi2t6VomqFm&#xA;+oRWkzf7ut6o3z4j4D9K5mYhKHUltj7T6mO0arz3YLq35d669TY6qrr2jkUxH5ck5V+7Nhj1OMc4&#xA;/pRL2jzz+okf1dmK3nkDzdASzWRmH88To9foB5fhmbHVYz1aRrcctyd0rl8v69Cf3unXSe5hkA29&#xA;6ZaMsD1DYM0D1Ch+jdR/5ZZv+Rbf0yXHHvZeJHvD1f8AJ+2165ik0u6tZoLNay2t1LG6oBX40BI3&#xA;33H05pu0skI+oGz3NWTsyeYicdo9T+ObOfP3kifUNPtJ9OT1r+0AhZdlMkRO3Wg+An7q5qtNqgJH&#xA;i5F63srKMERjkfTTGNP/ACm8yT0N08NmvcM3qP8AclV/4bMmevgOW7sp9pYxyssr0r8ptAtSr30k&#xA;l9IOqn93HX/VX4v+GzEya+Z5bOFk7Smfp2ZhZ2FlZQCCzgjt4R0SNQo+e3fMOUjI2TbgTmZGybV8&#xA;ixdirsVdirsVdirsVdirsVdirsVdirsVdiqjc2dtdJwnjEi9q9R8j1GSjMx5NWbBDIKkLSO88qdW&#xA;tJf+ecn8GH9MzIav+cHS5+xeuM/A/rSa502+tq+tCyqP2gKr942zKjljLkXUZtJlx/VEobJuO7FX&#xA;Yq7FXYq7FXYq2iO7BUUsx6KoqfwxJpMYmRoC0ztPLmoz0LqIE8X6/wDAjf78x56mI83Y4Oys0+Y4&#xA;R5/qTyx8vWFsQzj15B+0/QfJemYmTUyl5O60/ZeLHufUfP8AUmmY7snYq7FXYq7FXYq7FXYq7FXY&#xA;q7FXYq7FXYq7FXYq7FXYq7FXYq7FXYqld9/h6p+s+jy78ftf8J8WZGPxelut1P5T+Phv7fs3SO6/&#xA;w5X9z9Yr2404/wDD75lw8XrTpc35T+Hj/HvS6X0a/uuVP8qn8MvF9XAnw/w2swsHYqioP0XX9/69&#xA;P+K+H8crlx9KcnH4P8XF8KTaz/wrtWvLt63L+Hw5jz8b+x2mD8j8f6V/2J9a/UuH+i+nw/4q40/D&#xA;MOfF/E7vD4deiq8lbINzsVdirsVdirsVdirsVdirsVdirsVdirsVf//Z</xmpGImg:image>
               </rdf:li>
            </rdf:Alt>
         </xmp:Thumbnails>
         <xmpMM:RenditionClass>proof:pdf</xmpMM:RenditionClass>
         <xmpMM:OriginalDocumentID>uuid:65E6390686CF11DBA6E2D887CEACB407</xmpMM:OriginalDocumentID>
         <xmpMM:DocumentID>xmp.did:9a552a97-98b4-5340-8f61-5138ec91ed3f</xmpMM:DocumentID>
         <xmpMM:InstanceID>xmp.iid:9a552a97-98b4-5340-8f61-5138ec91ed3f</xmpMM:InstanceID>
         <xmpMM:DerivedFrom rdf:parseType="Resource">
            <stRef:instanceID>uuid:22a8284f-1ad6-4faa-836c-2384ce3e00fa</stRef:instanceID>
            <stRef:documentID>xmp.did:86345141-2776-af43-862f-1ac5b80cd0f6</stRef:documentID>
            <stRef:originalDocumentID>uuid:65E6390686CF11DBA6E2D887CEACB407</stRef:originalDocumentID>
            <stRef:renditionClass>proof:pdf</stRef:renditionClass>
         </xmpMM:DerivedFrom>
         <xmpMM:History>
            <rdf:Seq>
               <rdf:li rdf:parseType="Resource">
                  <stEvt:action>saved</stEvt:action>
                  <stEvt:instanceID>xmp.iid:86345141-2776-af43-862f-1ac5b80cd0f6</stEvt:instanceID>
                  <stEvt:when>2016-05-07T16:46:58-04:00</stEvt:when>
                  <stEvt:softwareAgent>Adobe Illustrator CC 2015 (Windows)</stEvt:softwareAgent>
                  <stEvt:changed>/</stEvt:changed>
               </rdf:li>
               <rdf:li rdf:parseType="Resource">
                  <stEvt:action>saved</stEvt:action>
                  <stEvt:instanceID>xmp.iid:9a552a97-98b4-5340-8f61-5138ec91ed3f</stEvt:instanceID>
                  <stEvt:when>2016-05-16T22:02:01-04:00</stEvt:when>
                  <stEvt:softwareAgent>Adobe Illustrator CC 2015 (Windows)</stEvt:softwareAgent>
                  <stEvt:changed>/</stEvt:changed>
               </rdf:li>
            </rdf:Seq>
         </xmpMM:History>
         <illustrator:StartupProfile>Web</illustrator:StartupProfile>
         <xmpTPg:NPages>1</xmpTPg:NPages>
         <xmpTPg:HasVisibleTransparency>True</xmpTPg:HasVisibleTransparency>
         <xmpTPg:HasVisibleOverprint>False</xmpTPg:HasVisibleOverprint>
         <xmpTPg:MaxPageSize rdf:parseType="Resource">
            <stDim:w>960.000000</stDim:w>
            <stDim:h>560.000000</stDim:h>
            <stDim:unit>Pixels</stDim:unit>
         </xmpTPg:MaxPageSize>
         <xmpTPg:PlateNames>
            <rdf:Seq>
               <rdf:li>Cyan</rdf:li>
               <rdf:li>Magenta</rdf:li>
               <rdf:li>Yellow</rdf:li>
               <rdf:li>Black</rdf:li>
            </rdf:Seq>
         </xmpTPg:PlateNames>
         <xmpTPg:SwatchGroups>
            <rdf:Seq>
               <rdf:li rdf:parseType="Resource">
                  <xmpG:groupName>Default Swatch Group</xmpG:groupName>
                  <xmpG:groupType>0</xmpG:groupType>
                  <xmpG:Colorants>
                     <rdf:Seq>
                        <rdf:li rdf:parseType="Resource">
                           <xmpG:swatchName>White</xmpG:swatchName>
                           <xmpG:mode>RGB</xmpG:mode>
                           <xmpG:type>PROCESS</xmpG:type>
                           <xmpG:red>255</xmpG:red>
                           <xmpG:green>255</xmpG:green>
                           <xmpG:blue>255</xmpG:blue>
                        </rdf:li>
                        <rdf:li rdf:parseType="Resource">
                           <xmpG:swatchName>Black</xmpG:swatchName>
                           <xmpG:mode>RGB</xmpG:mode>
                           <xmpG:type>PROCESS</xmpG:type>
                           <xmpG:red>0</xmpG:red>
                           <xmpG:green>0</xmpG:green>
                           <xmpG:blue>0</xmpG:blue>
                        </rdf:li>
                        <rdf:li rdf:parseType="Resource">
                           <xmpG:swatchName>RGB Red</xmpG:swatchName>
                           <xmpG:mode>RGB</xmpG:mode>
                           <xmpG:type>PROCESS</xmpG:type>
                           <xmpG:red>255</xmpG:red>
                           <xmpG:green>0</xmpG:green>
                           <xmpG:blue>0</xmpG:blue>
                        </rdf:li>
                        <rdf:li rdf:parseType="Resource">
                           <xmpG:swatchName>RGB Yellow</xmpG:swatchName>
                           <xmpG:mode>RGB</xmpG:mode>
                           <xmpG:type>PROCESS</xmpG:type>
                           <xmpG:red>255</xmpG:red>
                           <xmpG:green>255</xmpG:green>
                           <xmpG:blue>0</xmpG:blue>
                        </rdf:li>
                        <rdf:li rdf:parseType="Resource">
                           <xmpG:swatchName>RGB Green</xmpG:swatchName>
                           <xmpG:mode>RGB</xmpG:mode>
                           <xmpG:type>PROCESS</xmpG:type>
                           <xmpG:red>0</xmpG:red>
                           <xmpG:green>255</xmpG:green>
                           <xmpG:blue>0</xmpG:blue>
                        </rdf:li>
                        <rdf:li rdf:parseType="Resource">
                           <xmpG:swatchName>RGB Cyan</xmpG:swatchName>
                           <xmpG:mode>RGB</xmpG:mode>
                           <xmpG:type>PROCESS</xmpG:type>
                           <xmpG:red>0</xmpG:red>
                           <xmpG:green>255</xmpG:green>
                           <xmpG:blue>255</xmpG:blue>
                        </rdf:li>
                        <rdf:li rdf:parseType="Resource">
                           <xmpG:swatchName>RGB Blue</xmpG:swatchName>
                           <xmpG:mode>RGB</xmpG:mode>
                           <xmpG:type>PROCESS</xmpG:type>
                           <xmpG:red>0</xmpG:red>
                           <xmpG:green>0</xmpG:green>
                           <xmpG:blue>255</xmpG:blue>
                        </rdf:li>
                        <rdf:li rdf:parseType="Resource">
                           <xmpG:swatchName>RGB Magenta</xmpG:swatchName>
                           <xmpG:mode>RGB</xmpG:mode>
                           <xmpG:type>PROCESS</xmpG:type>
                           <xmpG:red>255</xmpG:red>
                           <xmpG:green>0</xmpG:green>
                           <xmpG:blue>255</xmpG:blue>
                        </rdf:li>
                        <rdf:li rdf:parseType="Resource">
                           <xmpG:swatchName>R=193 G=39 B=45</xmpG:swatchName>
                           <xmpG:mode>RGB</xmpG:mode>
                           <xmpG:type>PROCESS</xmpG:type>
                           <xmpG:red>193</xmpG:red>
                           <xmpG:green>39</xmpG:green>
                           <xmpG:blue>45</xmpG:blue>
                        </rdf:li>
                        <rdf:li rdf:parseType="Resource">
                           <xmpG:swatchName>R=237 G=28 B=36</xmpG:swatchName>
                           <xmpG:mode>RGB</xmpG:mode>
                           <xmpG:type>PROCESS</xmpG:type>
                           <xmpG:red>237</xmpG:red>
                           <xmpG:green>28</xmpG:green>
                           <xmpG:blue>36</xmpG:blue>
                        </rdf:li>
                        <rdf:li rdf:parseType="Resource">
                           <xmpG:swatchName>R=241 G=90 B=36</xmpG:swatchName>
                           <xmpG:mode>RGB</xmpG:mode>
                           <xmpG:type>PROCESS</xmpG:type>
                           <xmpG:red>241</xmpG:red>
                           <xmpG:green>90</xmpG:green>
                           <xmpG:blue>36</xmpG:blue>
                        </rdf:li>
                        <rdf:li rdf:parseType="Resource">
                           <xmpG:swatchName>R=247 G=147 B=30</xmpG:swatchName>
                           <xmpG:mode>RGB</xmpG:mode>
                           <xmpG:type>PROCESS</xmpG:type>
                           <xmpG:red>247</xmpG:red>
                           <xmpG:green>147</xmpG:green>
                           <xmpG:blue>30</xmpG:blue>
                        </rdf:li>
                        <rdf:li rdf:parseType="Resource">
                           <xmpG:swatchName>R=251 G=176 B=59</xmpG:swatchName>
                           <xmpG:mode>RGB</xmpG:mode>
                           <xmpG:type>PROCESS</xmpG:type>
                           <xmpG:red>251</xmpG:red>
                           <xmpG:green>176</xmpG:green>
                           <xmpG:blue>59</xmpG:blue>
                        </rdf:li>
                        <rdf:li rdf:parseType="Resource">
                           <xmpG:swatchName>R=252 G=238 B=33</xmpG:swatchName>
                           <xmpG:mode>RGB</xmpG:mode>
                           <xmpG:type>PROCESS</xmpG:type>
                           <xmpG:red>252</xmpG:red>
                           <xmpG:green>238</xmpG:green>
                           <xmpG:blue>33</xmpG:blue>
                        </rdf:li>
                        <rdf:li rdf:parseType="Resource">
                           <xmpG:swatchName>R=217 G=224 B=33</xmpG:swatchName>
                           <xmpG:mode>RGB</xmpG:mode>
                           <xmpG:type>PROCESS</xmpG:type>
                           <xmpG:red>217</xmpG:red>
                           <xmpG:green>224</xmpG:green>
                           <xmpG:blue>33</xmpG:blue>
                        </rdf:li>
                        <rdf:li rdf:parseType="Resource">
                           <xmpG:swatchName>R=140 G=198 B=63</xmpG:swatchName>
                           <xmpG:mode>RGB</xmpG:mode>
                           <xmpG:type>PROCESS</xmpG:type>
                           <xmpG:red>140</xmpG:red>
                           <xmpG:green>198</xmpG:green>
                           <xmpG:blue>63</xmpG:blue>
                        </rdf:li>
                        <rdf:li rdf:parseType="Resource">
                           <xmpG:swatchName>R=57 G=181 B=74</xmpG:swatchName>
                           <xmpG:mode>RGB</xmpG:mode>
                           <xmpG:type>PROCESS</xmpG:type>
                           <xmpG:red>57</xmpG:red>
                           <xmpG:green>181</xmpG:green>
                           <xmpG:blue>74</xmpG:blue>
                        </rdf:li>
                        <rdf:li rdf:parseType="Resource">
                           <xmpG:swatchName>R=0 G=146 B=69</xmpG:swatchName>
                           <xmpG:mode>RGB</xmpG:mode>
                           <xmpG:type>PROCESS</xmpG:type>
                           <xmpG:red>0</xmpG:red>
                           <xmpG:green>146</xmpG:green>
                           <xmpG:blue>69</xmpG:blue>
                        </rdf:li>
                        <rdf:li rdf:parseType="Resource">
                           <xmpG:swatchName>R=0 G=104 B=55</xmpG:swatchName>
                           <xmpG:mode>RGB</xmpG:mode>
                           <xmpG:type>PROCESS</xmpG:type>
                           <xmpG:red>0</xmpG:red>
                           <xmpG:green>104</xmpG:green>
                           <xmpG:blue>55</xmpG:blue>
                        </rdf:li>
                        <rdf:li rdf:parseType="Resource">
                           <xmpG:swatchName>R=34 G=181 B=115</xmpG:swatchName>
                           <xmpG:mode>RGB</xmpG:mode>
                           <xmpG:type>PROCESS</xmpG:type>
                           <xmpG:red>34</xmpG:red>
                           <xmpG:green>181</xmpG:green>
                           <xmpG:blue>115</xmpG:blue>
                        </rdf:li>
                        <rdf:li rdf:parseType="Resource">
                           <xmpG:swatchName>R=0 G=169 B=157</xmpG:swatchName>
                           <xmpG:mode>RGB</xmpG:mode>
                           <xmpG:type>PROCESS</xmpG:type>
                           <xmpG:red>0</xmpG:red>
                           <xmpG:green>169</xmpG:green>
                           <xmpG:blue>157</xmpG:blue>
                        </rdf:li>
                        <rdf:li rdf:parseType="Resource">
                           <xmpG:swatchName>R=41 G=171 B=226</xmpG:swatchName>
                           <xmpG:mode>RGB</xmpG:mode>
                           <xmpG:type>PROCESS</xmpG:type>
                           <xmpG:red>41</xmpG:red>
                           <xmpG:green>171</xmpG:green>
                           <xmpG:blue>226</xmpG:blue>
                        </rdf:li>
                        <rdf:li rdf:parseType="Resource">
                           <xmpG:swatchName>R=0 G=113 B=188</xmpG:swatchName>
                           <xmpG:mode>RGB</xmpG:mode>
                           <xmpG:type>PROCESS</xmpG:type>
                           <xmpG:red>0</xmpG:red>
                           <xmpG:green>113</xmpG:green>
                           <xmpG:blue>188</xmpG:blue>
                        </rdf:li>
                        <rdf:li rdf:parseType="Resource">
                           <xmpG:swatchName>R=46 G=49 B=146</xmpG:swatchName>
                           <xmpG:mode>RGB</xmpG:mode>
                           <xmpG:type>PROCESS</xmpG:type>
                           <xmpG:red>46</xmpG:red>
                           <xmpG:green>49</xmpG:green>
                           <xmpG:blue>146</xmpG:blue>
                        </rdf:li>
                        <rdf:li rdf:parseType="Resource">
                           <xmpG:swatchName>R=27 G=20 B=100</xmpG:swatchName>
                           <xmpG:mode>RGB</xmpG:mode>
                           <xmpG:type>PROCESS</xmpG:type>
                           <xmpG:red>27</xmpG:red>
                           <xmpG:green>20</xmpG:green>
                           <xmpG:blue>100</xmpG:blue>
                        </rdf:li>
                        <rdf:li rdf:parseType="Resource">
                           <xmpG:swatchName>R=102 G=45 B=145</xmpG:swatchName>
                           <xmpG:mode>RGB</xmpG:mode>
                           <xmpG:type>PROCESS</xmpG:type>
                           <xmpG:red>102</xmpG:red>
                           <xmpG:green>45</xmpG:green>
                           <xmpG:blue>145</xmpG:blue>
                        </rdf:li>
                        <rdf:li rdf:parseType="Resource">
                           <xmpG:swatchName>R=147 G=39 B=143</xmpG:swatchName>
                           <xmpG:mode>RGB</xmpG:mode>
                           <xmpG:type>PROCESS</xmpG:type>
                           <xmpG:red>147</xmpG:red>
                           <xmpG:green>39</xmpG:green>
                           <xmpG:blue>143</xmpG:blue>
                        </rdf:li>
                        <rdf:li rdf:parseType="Resource">
                           <xmpG:swatchName>R=158 G=0 B=93</xmpG:swatchName>
                           <xmpG:mode>RGB</xmpG:mode>
                           <xmpG:type>PROCESS</xmpG:type>
                           <xmpG:red>158</xmpG:red>
                           <xmpG:green>0</xmpG:green>
                           <xmpG:blue>93</xmpG:blue>
                        </rdf:li>
                        <rdf:li rdf:parseType="Resource">
                           <xmpG:swatchName>R=212 G=20 B=90</xmpG:swatchName>
                           <xmpG:mode>RGB</xmpG:mode>
                           <xmpG:type>PROCESS</xmpG:type>
                           <xmpG:red>212</xmpG:red>
                           <xmpG:green>20</xmpG:green>
                           <xmpG:blue>90</xmpG:blue>
                        </rdf:li>
                        <rdf:li rdf:parseType="Resource">
                           <xmpG:swatchName>R=237 G=30 B=121</xmpG:swatchName>
                           <xmpG:mode>RGB</xmpG:mode>
                           <xmpG:type>PROCESS</xmpG:type>
                           <xmpG:red>237</xmpG:red>
                           <xmpG:green>30</xmpG:green>
                           <xmpG:blue>121</xmpG:blue>
                        </rdf:li>
                        <rdf:li rdf:parseType="Resource">
                           <xmpG:swatchName>R=199 G=178 B=153</xmpG:swatchName>
                           <xmpG:mode>RGB</xmpG:mode>
                           <xmpG:type>PROCESS</xmpG:type>
                           <xmpG:red>199</xmpG:red>
                           <xmpG:green>178</xmpG:green>
                           <xmpG:blue>153</xmpG:blue>
                        </rdf:li>
                        <rdf:li rdf:parseType="Resource">
                           <xmpG:swatchName>R=153 G=134 B=117</xmpG:swatchName>
                           <xmpG:mode>RGB</xmpG:mode>
                           <xmpG:type>PROCESS</xmpG:type>
                           <xmpG:red>153</xmpG:red>
                           <xmpG:green>134</xmpG:green>
                           <xmpG:blue>117</xmpG:blue>
                        </rdf:li>
                        <rdf:li rdf:parseType="Resource">
                           <xmpG:swatchName>R=115 G=99 B=87</xmpG:swatchName>
                           <xmpG:mode>RGB</xmpG:mode>
                           <xmpG:type>PROCESS</xmpG:type>
                           <xmpG:red>115</xmpG:red>
                           <xmpG:green>99</xmpG:green>
                           <xmpG:blue>87</xmpG:blue>
                        </rdf:li>
                        <rdf:li rdf:parseType="Resource">
                           <xmpG:swatchName>R=83 G=71 B=65</xmpG:swatchName>
                           <xmpG:mode>RGB</xmpG:mode>
                           <xmpG:type>PROCESS</xmpG:type>
                           <xmpG:red>83</xmpG:red>
                           <xmpG:green>71</xmpG:green>
                           <xmpG:blue>65</xmpG:blue>
                        </rdf:li>
                        <rdf:li rdf:parseType="Resource">
                           <xmpG:swatchName>R=198 G=156 B=109</xmpG:swatchName>
                           <xmpG:mode>RGB</xmpG:mode>
                           <xmpG:type>PROCESS</xmpG:type>
                           <xmpG:red>198</xmpG:red>
                           <xmpG:green>156</xmpG:green>
                           <xmpG:blue>109</xmpG:blue>
                        </rdf:li>
                        <rdf:li rdf:parseType="Resource">
                           <xmpG:swatchName>R=166 G=124 B=82</xmpG:swatchName>
                           <xmpG:mode>RGB</xmpG:mode>
                           <xmpG:type>PROCESS</xmpG:type>
                           <xmpG:red>166</xmpG:red>
                           <xmpG:green>124</xmpG:green>
                           <xmpG:blue>82</xmpG:blue>
                        </rdf:li>
                        <rdf:li rdf:parseType="Resource">
                           <xmpG:swatchName>R=140 G=98 B=57</xmpG:swatchName>
                           <xmpG:mode>RGB</xmpG:mode>
                           <xmpG:type>PROCESS</xmpG:type>
                           <xmpG:red>140</xmpG:red>
                           <xmpG:green>98</xmpG:green>
                           <xmpG:blue>57</xmpG:blue>
                        </rdf:li>
                        <rdf:li rdf:parseType="Resource">
                           <xmpG:swatchName>R=117 G=76 B=36</xmpG:swatchName>
                           <xmpG:mode>RGB</xmpG:mode>
                           <xmpG:type>PROCESS</xmpG:type>
                           <xmpG:red>117</xmpG:red>
                           <xmpG:green>76</xmpG:green>
                           <xmpG:blue>36</xmpG:blue>
                        </rdf:li>
                        <rdf:li rdf:parseType="Resource">
                           <xmpG:swatchName>R=96 G=56 B=19</xmpG:swatchName>
                           <xmpG:mode>RGB</xmpG:mode>
                           <xmpG:type>PROCESS</xmpG:type>
                           <xmpG:red>96</xmpG:red>
                           <xmpG:green>56</xmpG:green>
                           <xmpG:blue>19</xmpG:blue>
                        </rdf:li>
                        <rdf:li rdf:parseType="Resource">
                           <xmpG:swatchName>R=66 G=33 B=11</xmpG:swatchName>
                           <xmpG:mode>RGB</xmpG:mode>
                           <xmpG:type>PROCESS</xmpG:type>
                           <xmpG:red>66</xmpG:red>
                           <xmpG:green>33</xmpG:green>
                           <xmpG:blue>11</xmpG:blue>
                        </rdf:li>
                     </rdf:Seq>
                  </xmpG:Colorants>
               </rdf:li>
               <rdf:li rdf:parseType="Resource">
                  <xmpG:groupName>Grays</xmpG:groupName>
                  <xmpG:groupType>1</xmpG:groupType>
                  <xmpG:Colorants>
                     <rdf:Seq>
                        <rdf:li rdf:parseType="Resource">
                           <xmpG:swatchName>R=0 G=0 B=0</xmpG:swatchName>
                           <xmpG:mode>RGB</xmpG:mode>
                           <xmpG:type>PROCESS</xmpG:type>
                           <xmpG:red>0</xmpG:red>
                           <xmpG:green>0</xmpG:green>
                           <xmpG:blue>0</xmpG:blue>
                        </rdf:li>
                        <rdf:li rdf:parseType="Resource">
                           <xmpG:swatchName>R=26 G=26 B=26</xmpG:swatchName>
                           <xmpG:mode>RGB</xmpG:mode>
                           <xmpG:type>PROCESS</xmpG:type>
                           <xmpG:red>26</xmpG:red>
                           <xmpG:green>26</xmpG:green>
                           <xmpG:blue>26</xmpG:blue>
                        </rdf:li>
                        <rdf:li rdf:parseType="Resource">
                           <xmpG:swatchName>R=51 G=51 B=51</xmpG:swatchName>
                           <xmpG:mode>RGB</xmpG:mode>
                           <xmpG:type>PROCESS</xmpG:type>
                           <xmpG:red>51</xmpG:red>
                           <xmpG:green>51</xmpG:green>
                           <xmpG:blue>51</xmpG:blue>
                        </rdf:li>
                        <rdf:li rdf:parseType="Resource">
                           <xmpG:swatchName>R=77 G=77 B=77</xmpG:swatchName>
                           <xmpG:mode>RGB</xmpG:mode>
                           <xmpG:type>PROCESS</xmpG:type>
                           <xmpG:red>77</xmpG:red>
                           <xmpG:green>77</xmpG:green>
                           <xmpG:blue>77</xmpG:blue>
                        </rdf:li>
                        <rdf:li rdf:parseType="Resource">
                           <xmpG:swatchName>R=102 G=102 B=102</xmpG:swatchName>
                           <xmpG:mode>RGB</xmpG:mode>
                           <xmpG:type>PROCESS</xmpG:type>
                           <xmpG:red>102</xmpG:red>
                           <xmpG:green>102</xmpG:green>
                           <xmpG:blue>102</xmpG:blue>
                        </rdf:li>
                        <rdf:li rdf:parseType="Resource">
                           <xmpG:swatchName>R=128 G=128 B=128</xmpG:swatchName>
                           <xmpG:mode>RGB</xmpG:mode>
                           <xmpG:type>PROCESS</xmpG:type>
                           <xmpG:red>128</xmpG:red>
                           <xmpG:green>128</xmpG:green>
                           <xmpG:blue>128</xmpG:blue>
                        </rdf:li>
                        <rdf:li rdf:parseType="Resource">
                           <xmpG:swatchName>R=153 G=153 B=153</xmpG:swatchName>
                           <xmpG:mode>RGB</xmpG:mode>
                           <xmpG:type>PROCESS</xmpG:type>
                           <xmpG:red>153</xmpG:red>
                           <xmpG:green>153</xmpG:green>
                           <xmpG:blue>153</xmpG:blue>
                        </rdf:li>
                        <rdf:li rdf:parseType="Resource">
                           <xmpG:swatchName>R=179 G=179 B=179</xmpG:swatchName>
                           <xmpG:mode>RGB</xmpG:mode>
                           <xmpG:type>PROCESS</xmpG:type>
                           <xmpG:red>179</xmpG:red>
                           <xmpG:green>179</xmpG:green>
                           <xmpG:blue>179</xmpG:blue>
                        </rdf:li>
                        <rdf:li rdf:parseType="Resource">
                           <xmpG:swatchName>R=204 G=204 B=204</xmpG:swatchName>
                           <xmpG:mode>RGB</xmpG:mode>
                           <xmpG:type>PROCESS</xmpG:type>
                           <xmpG:red>204</xmpG:red>
                           <xmpG:green>204</xmpG:green>
                           <xmpG:blue>204</xmpG:blue>
                        </rdf:li>
                        <rdf:li rdf:parseType="Resource">
                           <xmpG:swatchName>R=230 G=230 B=230</xmpG:swatchName>
                           <xmpG:mode>RGB</xmpG:mode>
                           <xmpG:type>PROCESS</xmpG:type>
                           <xmpG:red>230</xmpG:red>
                           <xmpG:green>230</xmpG:green>
                           <xmpG:blue>230</xmpG:blue>
                        </rdf:li>
                        <rdf:li rdf:parseType="Resource">
                           <xmpG:swatchName>R=242 G=242 B=242</xmpG:swatchName>
                           <xmpG:mode>RGB</xmpG:mode>
                           <xmpG:type>PROCESS</xmpG:type>
                           <xmpG:red>242</xmpG:red>
                           <xmpG:green>242</xmpG:green>
                           <xmpG:blue>242</xmpG:blue>
                        </rdf:li>
                     </rdf:Seq>
                  </xmpG:Colorants>
               </rdf:li>
               <rdf:li rdf:parseType="Resource">
                  <xmpG:groupName>Web Color Group</xmpG:groupName>
                  <xmpG:groupType>1</xmpG:groupType>
                  <xmpG:Colorants>
                     <rdf:Seq>
                        <rdf:li rdf:parseType="Resource">
                           <xmpG:swatchName>R=63 G=169 B=245</xmpG:swatchName>
                           <xmpG:mode>RGB</xmpG:mode>
                           <xmpG:type>PROCESS</xmpG:type>
                           <xmpG:red>63</xmpG:red>
                           <xmpG:green>169</xmpG:green>
                           <xmpG:blue>245</xmpG:blue>
                        </rdf:li>
                        <rdf:li rdf:parseType="Resource">
                           <xmpG:swatchName>R=122 G=201 B=67</xmpG:swatchName>
                           <xmpG:mode>RGB</xmpG:mode>
                           <xmpG:type>PROCESS</xmpG:type>
                           <xmpG:red>122</xmpG:red>
                           <xmpG:green>201</xmpG:green>
                           <xmpG:blue>67</xmpG:blue>
                        </rdf:li>
                        <rdf:li rdf:parseType="Resource">
                           <xmpG:swatchName>R=255 G=147 B=30</xmpG:swatchName>
                           <xmpG:mode>RGB</xmpG:mode>
                           <xmpG:type>PROCESS</xmpG:type>
                           <xmpG:red>255</xmpG:red>
                           <xmpG:green>147</xmpG:green>
                           <xmpG:blue>30</xmpG:blue>
                        </rdf:li>
                        <rdf:li rdf:parseType="Resource">
                           <xmpG:swatchName>R=255 G=29 B=37</xmpG:swatchName>
                           <xmpG:mode>RGB</xmpG:mode>
                           <xmpG:type>PROCESS</xmpG:type>
                           <xmpG:red>255</xmpG:red>
                           <xmpG:green>29</xmpG:green>
                           <xmpG:blue>37</xmpG:blue>
                        </rdf:li>
                        <rdf:li rdf:parseType="Resource">
                           <xmpG:swatchName>R=255 G=123 B=172</xmpG:swatchName>
                           <xmpG:mode>RGB</xmpG:mode>
                           <xmpG:type>PROCESS</xmpG:type>
                           <xmpG:red>255</xmpG:red>
                           <xmpG:green>123</xmpG:green>
                           <xmpG:blue>172</xmpG:blue>
                        </rdf:li>
                        <rdf:li rdf:parseType="Resource">
                           <xmpG:swatchName>R=189 G=204 B=212</xmpG:swatchName>
                           <xmpG:mode>RGB</xmpG:mode>
                           <xmpG:type>PROCESS</xmpG:type>
                           <xmpG:red>189</xmpG:red>
                           <xmpG:green>204</xmpG:green>
                           <xmpG:blue>212</xmpG:blue>
                        </rdf:li>
                     </rdf:Seq>
                  </xmpG:Colorants>
               </rdf:li>
            </rdf:Seq>
         </xmpTPg:SwatchGroups>
         <pdf:Producer>Adobe PDF library 10.01</pdf:Producer>
      </rdf:Description>
   </rdf:RDF>
</x:xmpmeta>
                                                                                                    
                                                                                                    
                                                                                                    
                                                                                                    
                                                                                                    
                                                                                                    
                                                                                                    
                                                                                                    
                                                                                                    
                                                                                                    
                                                                                                    
                                                                                                    
                                                                                                    
                                                                                                    
                                                                                                    
                                                                                                    
                                                                                                    
                                                                                                    
                                                                                                    
                                                                                                    
                           
<?xpacket end="w"?>
	</metadata>
<pattern  width="108.3" height="109.6" patternUnits="userSpaceOnUse" id="Jive" viewBox="47.6 -219.3 108.3 109.6" style="overflow:visible;">
	<g>
		<rect x="47.6" y="-219.3" class="st0" width="108.3" height="109.6"/>
		<g>
			<path class="st1" d="M135-74.9c0-0.1,0.1-0.2,0.2-0.2c12.9-0.1,24.8-3.3,34-11.5c-8,5.6-22.9,7.5-31.5,3.6
				c-0.1,0-0.2-0.2-0.1-0.3c0-0.1,0.1-0.2,0.3-0.2c10.7,0.3,19.3-3,26-9c-6.9-0.4-12.6-4.7-12.6-9.8c0-0.1,0.1-0.2,0.2-0.2
				c0.1,0,0.2,0,0.3,0.1c1.1,2.5,4.7,3.8,8.6,2.9c4.2-1,7-4.2,6.3-7.2c-0.5-2-2.4-3.4-5-3.8c-0.1,0-0.2-0.1-0.2-0.3
				c0-0.1,0.1-0.2,0.2-0.2c1.1-0.1,2.2-0.1,3.3,0c6.5,0.6,11.5,4.6,11.9,9.2c4.7-0.5,8.9-3.2,10.4-6.8c0-0.1,0.2-0.2,0.3-0.2
				c0.1,0,0.2,0.1,0.2,0.2c0.4,4.8-1.3,7.8-5,10.9c5.4-2.1,11.4-2.2,17.3,0.5c0.1,0,0.2,0.2,0.1,0.3c0,0.1-0.1,0.2-0.2,0.2
				c-4.9,0.2-8.4,1.8-11.7,5.1c18.3-5.1,33.1,6.2,28,23.1c0,0.1-0.1,0.2-0.3,0.2c-0.1,0-0.2-0.1-0.2-0.2
				c-0.9-9.7-7.7-16.1-17.9-17.1c5.4,2.1,11,7,11.6,15.5c0,0.1-0.1,0.2-0.2,0.3c-0.1,0-0.2,0-0.3-0.1c-2.8-6.2-8.3-9.3-14.2-9.8
				c6.3,2.6,10.4,8.6,11.6,16.4c0,0.1-0.1,0.2-0.2,0.3c-0.1,0-0.2,0-0.3-0.1c-3.9-7.6-12.2-12.8-22.4-8.8
				c-10.6,4.1-15.3,16.4-16.3,25c0,0.1-0.1,0.2-0.2,0.2c-0.1,0-0.2-0.1-0.3-0.2c-3.7-15.7,3.6-31.9,16.6-38.8
				c-7.1,2-13.4,6.3-17,13.4c-8.3,1-14,3.9-16.9,9.2c-0.1,0.1-0.2,0.2-0.3,0.1c-0.1,0-0.2-0.1-0.2-0.3c0.2-2.1,0.9-6.3,4.1-8.3
				c-7,0-12.5-0.9-17.8-3C135.1-74.7,135-74.8,135-74.9z M164.5-21.5c-0.1-0.1-0.2-0.1-0.3,0c-0.1,0.1-0.1,0.2,0,0.3
				c1.6,2.8,0.1,6.8-3.1,6.8c-5.7,0-8.5-10.8-7.6-20.6c2.2,5.8,4,8.1,7.3,10.8c0.1,0.1,0.2,0.1,0.3,0c0.1-0.1,0.1-0.2,0.1-0.3
				c-4.9-9.1-5.9-16.1-5.9-24.1c1.5,6,3.2,9.3,8.1,14.4c0.1,0.1,0.2,0.1,0.3,0c0.1-0.1,0.1-0.2,0.1-0.3c-5.3-11.6-4.9-24.4-0.9-34.3
				c0-0.1,0-0.2-0.1-0.3c-0.1-0.1-0.2-0.1-0.3,0c-5.2,2.6-8.3,4.2-12.8,10.4c1.4,7.4,0.2,11-3.2,17.2c3.9-9.9,1.8-23.9-8.2-29.6
				c-0.1-0.1-0.2,0-0.3,0.1c-0.1,0.1-0.1,0.2,0,0.3c3.8,4,6.5,10.6,4.2,17.9c1.5-10.4-7.6-19.1-17.8-19.1c-9.6,0-16.2,7.5-15.6,14.9
				c0.5,7.4,5.4,11,9.7,12.5c0.1,0,0.2,0,0.3-0.1c0.1-0.1,0-0.2,0-0.3c-5.6-5.7-6.4-16.5,3.6-19.8c-5.9,5.1-3.7,16.8,5.7,17.7
				c0.1,0,0.2-0.1,0.3-0.2c0-0.1,0-0.2-0.1-0.3c-2-1.3-3.7-3.8-3.7-6.6c0-4.7,3.4-6.5,5.7-6.5c3.4,0,6.3,3.3,6.3,8.2
				c0,5.8-5.3,10.7-12,11.4c-6.6,0.7-12.8-2.2-15.8-6.5c-0.1-0.1-0.2-0.1-0.3-0.1c-0.1,0.1-0.2,0.2-0.1,0.3
				c3,11.7,16.8,16.9,26.9,9.5c-6.6,7.5-17,7.6-25.7-0.1c-0.1-0.1-0.2-0.1-0.3,0c-0.1,0.1-0.1,0.2-0.1,0.3
				c2.7,5.4,9.3,11.8,18.6,10.9c8.6-0.9,13.5-9,14.5-15.7c0.6,8.5-1.4,14.5-8.8,20.1c-0.1,0.1-0.1,0.2-0.1,0.3
				c0.1,0.1,0.2,0.2,0.3,0.1c6.8-2,12.2-5.4,15-12.5c0,6.2-2.1,12.4-7.5,16.5c-0.1,0.1-0.1,0.2-0.1,0.3s0.2,0.2,0.3,0.1
				c3.5-1,6.2-2.5,8.1-5.2c1.3,11.1,6.5,17.7,12.5,17.7c4.1,0,7.2-3,7.2-7.9C169.3-15.3,167.8-19.3,164.5-21.5z M263.7-113.1
				c-3.2-3.9-9.5-5.4-16.4-4c0.5-4.3-0.3-8.8-1.6-11.5c-0.1-0.1-0.2-0.2-0.3-0.1c-0.1,0-0.2,0.1-0.2,0.3c0.4,8.8-4.6,15.8-13.4,18.9
				c6.9-4.8,8.9-14.2,5.6-19.1c-0.1-0.1-0.2-0.1-0.3-0.1c-0.1,0-0.2,0.2-0.2,0.3c0.4,2.1-0.6,4.7-2.7,6.7c-2.9,2.8-6.8,3.5-8.8,1.4
				c-2-2-1.2-5.9,1.7-8.8c1.1-1,2.3-1.8,3.4-2.2c0.1,0,0.2-0.2,0.2-0.3c0-0.1-0.1-0.2-0.2-0.2c-6.4-0.6-10.8,3.3-13.5,7.9
				c-2.8,4.7-7.6,8.4-13.2,7.7c-0.1,0-0.2,0.1-0.3,0.2c0,0.1,0,0.2,0.1,0.3c2.8,1.7,5.9,2.4,9.9,1.1c-5.8,4.9-14,7.7-21.8,5.2
				c-0.1,0-0.2,0-0.3,0.1c-0.1,0.1-0.1,0.2,0,0.3c5.9,6.6,17.7,6.7,25.1,1.4c-3,4.3-7.1,7.5-14.3,8.5c-0.1,0-0.2,0.1-0.2,0.2
				c0,0.1,0.1,0.2,0.2,0.3c8.3,3.1,16.6,0,23.4-8.2c-3,6.4-7.9,11.5-14.8,14c-0.1,0-0.2,0.2-0.2,0.3c0,0.1,0.1,0.2,0.2,0.2
				c3.9,0.1,7.5-0.9,12.3-3.6c-3.5,5.7-2.7,15.6,2.4,22.3c0.1,0.1,0.2,0.1,0.3,0.1c0.1,0,0.2-0.2,0.1-0.3
				c-1.2-7.2,1.3-15.3,5.6-19.6c-2.2,7.6,0,14.6,5.9,19.6c0.1,0.1,0.2,0.1,0.3,0c0.1,0,0.1-0.1,0.2-0.2c1.2-9.4,11.8-19,20.6-19.8
				c0.1,0,0.2-0.1,0.2-0.2c0-0.1-0.1-0.2-0.2-0.3c-4.3-1-8.7-0.5-12.4,1c2.7-2.9,5.9-5.1,9.6-6.2c0.1,0,0.2-0.2,0.2-0.3
				c0-0.1-0.1-0.2-0.2-0.2c-4.5-0.3-8.9,1-12.7,3.5c4.4-6.6,11-11.5,19.4-13.5c0.1,0,0.2-0.1,0.2-0.3c0-0.1-0.1-0.2-0.2-0.2
				c-11.9-1.3-21.7,3.3-28.2,11.9c1.6-4.9,6.4-9.8,12.9-12.6c5.8-2.5,11.9-2.9,16.4-1.5c0.1,0,0.2,0,0.3-0.1
				C263.8-112.9,263.8-113,263.7-113.1z M210.8-37.5c4.8-10.5,4.5-18.7,0.6-29.1c0-0.1-0.2-0.2-0.3-0.2c-0.1,0-0.2,0.1-0.2,0.3
				c0.6,12.6-2.8,21.7-10.3,27.8c8.3-9.9,4.4-29.6-8.8-29.6c-9.6,0-17.5,8-19.5,17.5c0,0.1,0,0.2,0.2,0.3c0.1,0,0.2,0,0.3-0.1
				c2.8-4.8,7.4-7.9,12.5-7.9c8.1,0,10.5,6.5,10.5,11c0,6.2-4.9,11.3-8.7,11.3c-3.4,0-5-2.8-5-4.9c0-3.9,3-7.2,6.4-8.2
				c0.1,0,0.2-0.2,0.2-0.3c0-0.1-0.1-0.2-0.3-0.2c-4.1,0-7.6,1.9-9.6,5.6c-0.3-2.9-0.3-4.7,0.6-7.7c0-0.1,0-0.2-0.1-0.3
				c-0.1-0.1-0.2,0-0.3,0.1c-7.4,9.4-3.8,25.6,2,32.4c-5.5-4-10.4-12.6-10.3-24.4c0-0.1-0.1-0.2-0.2-0.3c-0.1,0-0.2,0-0.3,0.2
				c-4.1,10.3-1.9,29.2,9.3,39.9c-2.9,0.4-5.9,0.3-9.1-0.7c-0.1,0-0.2,0-0.3,0.1c-0.1,0.1,0,0.2,0.1,0.3c4.1,3.5,9.8,4.5,15.3,4.5
				c-4.7-5.5-3.1-16.6,4.4-16.6c5.3,0,7.8,8.3,3.6,12.8c-0.1,0.1-0.1,0.2,0,0.3c0.1,0.1,0.2,0.1,0.3,0.1c4.8-1.7,9.9-5.8,9.9-11
				c0-5-4.8-9.4-11.8-9.1c8.8-2.5,18.1,0.3,22.9,6.3c0.1,0.1,0.2,0.1,0.3,0.1c0.1-0.1,0.2-0.2,0.1-0.3c-2.8-10.7-12-15.2-23.4-13.7
				c9.3-3.8,23.3-0.5,29.4,7.3c0.1,0.1,0.2,0.1,0.3,0.1c0.1-0.1,0.2-0.2,0.1-0.3C220.1-30.6,216.6-35.6,210.8-37.5z"/>
			<path class="st2" d="M237.2-56.8c0,0.1-0.1,0.2-0.2,0.2c-12.9,0.1-24.8,3.3-34,11.5c8-5.6,22.9-7.5,31.5-3.6
				c0.1,0.1,0.2,0.2,0.1,0.3c0,0.1-0.1,0.2-0.3,0.2c-10.7-0.3-19.3,3-26,9c6.9,0.4,12.6,4.7,12.6,9.8c0,0.1-0.1,0.2-0.2,0.2
				c-0.1,0-0.2,0-0.3-0.1c-1.1-2.5-4.7-3.8-8.6-2.9c-4.2,1-7,4.2-6.3,7.2c0.5,2,2.4,3.4,5,3.8c0.1,0,0.2,0.1,0.2,0.3
				c0,0.1-0.1,0.2-0.2,0.2c-1.1,0.1-2.2,0.1-3.3,0c-6.5-0.6-11.5-4.6-11.9-9.2c-4.7,0.5-8.9,3.2-10.4,6.8c0,0.1-0.2,0.2-0.3,0.2
				c-0.1,0-0.2-0.1-0.2-0.2c-0.4-4.8,1.3-7.8,5-10.9c-5.4,2.1-11.4,2.2-17.3-0.5c-0.1-0.1-0.2-0.2-0.1-0.3c0-0.1,0.1-0.2,0.2-0.2
				c4.9-0.2,8.4-1.8,11.7-5.1c-18.3,5.1-33.1-6.2-28-23.1c0-0.1,0.1-0.2,0.3-0.2s0.2,0.1,0.2,0.2c0.9,9.7,7.7,16.1,17.9,17.1
				c-5.4-2.1-11-7-11.6-15.5c0-0.1,0.1-0.2,0.2-0.3c0.1,0,0.2,0,0.3,0.1c2.8,6.2,8.3,9.3,14.2,9.8c-6.3-2.6-10.4-8.6-11.6-16.4
				c0-0.1,0.1-0.2,0.2-0.3c0.1,0,0.2,0,0.3,0.1c3.9,7.6,12.2,12.8,22.4,8.8c10.6-4.1,15.3-16.4,16.3-25c0-0.1,0.1-0.2,0.2-0.2
				c0.1,0,0.2,0.1,0.3,0.2c3.7,15.7-3.6,31.9-16.6,38.8c7.1-2,13.4-6.3,17-13.4c8.3-1,14-3.9,16.9-9.2c0.1-0.1,0.2-0.2,0.3-0.1
				c0.1,0,0.2,0.1,0.2,0.3c-0.2,2.1-0.9,6.3-4.1,8.3c7,0,12.5,0.9,17.8,3C237.2-57,237.2-56.9,237.2-56.8z M207.7-110.3
				c0.1,0.1,0.2,0.1,0.3,0c0.1-0.1,0.1-0.2,0-0.3c-1.6-2.8-0.1-6.8,3.1-6.8c5.7,0,8.5,10.8,7.6,20.6c-2.2-5.8-4-8.1-7.3-10.8
				c-0.1-0.1-0.2-0.1-0.3,0c-0.1,0.1-0.1,0.2-0.1,0.3c4.9,9.1,5.9,16.1,5.9,24.1c-1.5-6-3.2-9.3-8.1-14.4c-0.1-0.1-0.2-0.1-0.3,0
				c-0.1,0.1-0.1,0.2-0.1,0.3c5.3,11.6,4.9,24.4,0.9,34.3c0,0.1,0,0.2,0.1,0.3c0.1,0.1,0.2,0.1,0.3,0c5.2-2.6,8.3-4.2,12.8-10.4
				c-1.4-7.4-0.2-11,3.2-17.2c-3.9,9.9-1.8,23.9,8.2,29.6c0.1,0.1,0.2,0,0.3-0.1c0.1-0.1,0.1-0.2,0-0.3c-3.8-4-6.5-10.6-4.2-17.9
				c-1.5,10.4,7.6,19.1,17.8,19.1c9.6,0,16.2-7.5,15.6-14.9c-0.5-7.4-5.4-11-9.7-12.5c-0.1,0-0.2,0-0.3,0.1c-0.1,0.1-0.1,0.2,0,0.3
				c5.6,5.7,6.4,16.5-3.6,19.8c5.9-5.1,3.7-16.8-5.7-17.7c-0.1,0-0.2,0.1-0.3,0.2c0,0.1,0,0.2,0.1,0.3c2,1.3,3.7,3.8,3.7,6.6
				c0,4.7-3.4,6.5-5.7,6.5c-3.4,0-6.3-3.3-6.3-8.2c0-5.8,5.3-10.7,12-11.4c6.6-0.7,12.8,2.2,15.8,6.5c0.1,0.1,0.2,0.1,0.3,0.1
				c0.1-0.1,0.2-0.2,0.1-0.3c-3-11.7-16.8-16.9-26.9-9.5c6.6-7.5,17-7.6,25.7,0.1c0.1,0.1,0.2,0.1,0.3,0c0.1-0.1,0.1-0.2,0.1-0.3
				c-2.7-5.4-9.3-11.8-18.6-10.9c-8.6,0.9-13.5,9-14.5,15.7c-0.6-8.5,1.4-14.5,8.8-20.1c0.1-0.1,0.1-0.2,0.1-0.3
				c-0.1-0.1-0.2-0.2-0.3-0.1c-6.8,2-12.2,5.4-15,12.5c0-6.2,2.1-12.4,7.5-16.5c0.1-0.1,0.1-0.2,0.1-0.3c-0.1-0.1-0.2-0.2-0.3-0.1
				c-3.5,1-6.2,2.5-8.1,5.2c-1.3-11.1-6.5-17.7-12.5-17.7c-4.1,0-7.2,3-7.2,7.9C202.9-116.5,204.4-112.5,207.7-110.3z M108.5-18.7
				c3.2,3.9,9.5,5.4,16.4,4c-0.5,4.3,0.3,8.8,1.6,11.5c0.1,0.1,0.2,0.2,0.3,0.1s0.2-0.1,0.2-0.3c-0.4-8.8,4.6-15.8,13.4-18.9
				c-6.9,4.8-8.9,14.2-5.6,19.1c0.1,0.1,0.2,0.1,0.3,0.1c0.1,0,0.2-0.2,0.2-0.3c-0.4-2.1,0.6-4.7,2.7-6.7c2.9-2.8,6.8-3.5,8.8-1.4
				c2,2,1.2,5.9-1.7,8.8c-1.1,1-2.3,1.8-3.4,2.2c-0.1,0-0.2,0.2-0.2,0.3c0,0.1,0.1,0.2,0.2,0.2c6.4,0.6,10.8-3.3,13.5-7.9
				c2.8-4.7,7.6-8.4,13.2-7.7c0.1,0,0.2-0.1,0.3-0.2c0-0.1,0-0.2-0.1-0.3c-2.8-1.7-5.9-2.4-9.9-1.1c5.8-4.9,14-7.7,21.8-5.2
				c0.1,0,0.2,0,0.3-0.1c0.1-0.1,0.1-0.2,0-0.3c-5.9-6.6-17.7-6.7-25.1-1.4c3-4.3,7.1-7.5,14.3-8.5c0.1,0,0.2-0.1,0.2-0.2
				c0-0.1-0.1-0.2-0.2-0.3c-8.3-3.1-16.6,0-23.4,8.2c3-6.4,7.9-11.5,14.8-14c0.1,0,0.2-0.2,0.2-0.3c0-0.1-0.1-0.2-0.2-0.2
				c-3.9-0.1-7.5,0.9-12.3,3.6c3.5-5.7,2.7-15.6-2.4-22.3c-0.1-0.1-0.2-0.1-0.3-0.1c-0.1,0-0.2,0.2-0.1,0.3
				c1.2,7.2-1.3,15.3-5.6,19.6c2.2-7.6,0-14.6-5.9-19.6c-0.1-0.1-0.2-0.1-0.3,0c-0.1,0-0.1,0.1-0.2,0.2c-1.2,9.4-11.8,19-20.6,19.8
				c-0.1,0-0.2,0.1-0.2,0.2c0,0.1,0.1,0.2,0.2,0.3c4.3,1,8.7,0.5,12.4-1c-2.7,2.9-5.9,5.1-9.6,6.2c-0.1,0-0.2,0.2-0.2,0.3
				c0,0.1,0.1,0.2,0.2,0.2c4.5,0.3,8.9-1,12.7-3.5c-4.4,6.6-11,11.5-19.4,13.5c-0.1,0-0.2,0.1-0.2,0.3c0,0.1,0.1,0.2,0.2,0.2
				c11.9,1.3,21.7-3.3,28.2-11.9c-1.6,4.9-6.4,9.8-12.9,12.6c-5.8,2.5-11.8,2.9-16.4,1.5c-0.1,0-0.2,0-0.3,0.1
				C108.4-18.9,108.4-18.7,108.5-18.7z M161.4-94.2c-4.8,10.5-4.5,18.7-0.6,29.1c0,0.1,0.2,0.2,0.3,0.2c0.1,0,0.2-0.1,0.2-0.3
				c-0.6-12.6,2.8-21.7,10.3-27.8c-8.3,9.9-4.4,29.6,8.8,29.6c9.6,0,17.5-8,19.5-17.5c0-0.1,0-0.2-0.2-0.3c-0.1,0-0.2,0-0.3,0.1
				c-2.8,4.8-7.4,7.9-12.5,7.9c-8.1,0-10.5-6.5-10.5-11c0-6.2,4.9-11.3,8.7-11.3c3.4,0,5,2.8,5,4.9c0,3.9-3,7.2-6.4,8.2
				c-0.1,0-0.2,0.2-0.2,0.3c0,0.1,0.1,0.2,0.3,0.2c4.1,0,7.6-1.9,9.6-5.6c0.3,2.9,0.3,4.7-0.6,7.7c0,0.1,0,0.2,0.1,0.3
				c0.1,0.1,0.2,0,0.3-0.1c7.4-9.4,3.8-25.6-2-32.4c5.5,4,10.4,12.6,10.3,24.4c0,0.1,0.1,0.2,0.2,0.3c0.1,0,0.2,0,0.3-0.2
				c4.1-10.3,1.9-29.2-9.3-39.9c2.9-0.4,5.9-0.3,9.1,0.7c0.1,0,0.2,0,0.3-0.1c0.1-0.1,0-0.2-0.1-0.3c-4.1-3.5-9.8-4.5-15.3-4.5
				c4.7,5.5,3.1,16.6-4.4,16.6c-5.3,0-7.8-8.3-3.6-12.8c0.1-0.1,0.1-0.2,0-0.3c-0.1-0.1-0.2-0.1-0.3-0.1c-4.8,1.7-9.9,5.8-9.9,11
				c0,5,4.8,9.4,11.8,9.1c-8.8,2.5-18.1-0.3-22.9-6.3c-0.1-0.1-0.2-0.1-0.3-0.1c-0.1,0.1-0.2,0.2-0.1,0.3
				c2.8,10.7,12,15.2,23.4,13.7c-9.3,3.8-23.3,0.5-29.4-7.3c-0.1-0.1-0.2-0.1-0.3-0.1c-0.1,0-0.2,0.2-0.1,0.3
				C152.2-101.1,155.7-96.2,161.4-94.2z"/>
		</g>
		<g>
			<path class="st1" d="M26.7-74.9c0-0.1,0.1-0.2,0.2-0.2c12.9-0.1,24.8-3.3,34-11.5c-8,5.6-22.9,7.5-31.5,3.6
				c-0.1,0-0.2-0.2-0.1-0.3c0-0.1,0.1-0.2,0.3-0.2c10.7,0.3,19.3-3,26-9c-6.9-0.4-12.6-4.7-12.6-9.8c0-0.1,0.1-0.2,0.2-0.2
				c0.1,0,0.2,0,0.3,0.1c1.1,2.5,4.7,3.8,8.6,2.9c4.2-1,7-4.2,6.3-7.2c-0.5-2-2.4-3.4-5-3.8c-0.1,0-0.2-0.1-0.2-0.3
				c0-0.1,0.1-0.2,0.2-0.2c1.1-0.1,2.2-0.1,3.3,0c6.5,0.6,11.5,4.6,11.9,9.2c4.7-0.5,8.9-3.2,10.4-6.8c0-0.1,0.2-0.2,0.3-0.2
				c0.1,0,0.2,0.1,0.2,0.2c0.4,4.8-1.3,7.8-5,10.9c5.4-2.1,11.4-2.2,17.3,0.5c0.1,0,0.2,0.2,0.1,0.3c0,0.1-0.1,0.2-0.2,0.2
				c-4.9,0.2-8.4,1.8-11.7,5.1c18.3-5.1,33.1,6.2,28,23.1c0,0.1-0.1,0.2-0.3,0.2c-0.1,0-0.2-0.1-0.2-0.2
				c-0.9-9.7-7.7-16.1-17.9-17.1c5.4,2.1,11,7,11.6,15.5c0,0.1-0.1,0.2-0.2,0.3c-0.1,0-0.2,0-0.3-0.1c-2.8-6.2-8.3-9.3-14.2-9.8
				c6.3,2.6,10.4,8.6,11.6,16.4c0,0.1-0.1,0.2-0.2,0.3c-0.1,0-0.2,0-0.3-0.1c-3.9-7.6-12.2-12.8-22.4-8.8C64.5-68,59.8-55.7,58.8-47
				c0,0.1-0.1,0.2-0.2,0.2c-0.1,0-0.2-0.1-0.3-0.2c-3.7-15.7,3.6-31.9,16.6-38.8c-7.1,2-13.4,6.3-17,13.4c-8.3,1-14,3.9-16.9,9.2
				c-0.1,0.1-0.2,0.2-0.3,0.1c-0.1,0-0.2-0.1-0.2-0.3c0.2-2.1,0.9-6.3,4.1-8.3c-7,0-12.5-0.9-17.8-3C26.7-74.7,26.7-74.8,26.7-74.9z
				 M56.2-21.5c-0.1-0.1-0.2-0.1-0.3,0c-0.1,0.1-0.1,0.2,0,0.3c1.6,2.8,0.1,6.8-3.1,6.8c-5.7,0-8.5-10.8-7.6-20.6
				c2.2,5.8,4,8.1,7.3,10.8c0.1,0.1,0.2,0.1,0.3,0c0.1-0.1,0.1-0.2,0.1-0.3C48.1-33.5,47-40.5,47-48.5c1.5,6,3.2,9.3,8.1,14.4
				c0.1,0.1,0.2,0.1,0.3,0c0.1-0.1,0.1-0.2,0.1-0.3c-5.3-11.6-4.9-24.4-0.9-34.3c0-0.1,0-0.2-0.1-0.3c-0.1-0.1-0.2-0.1-0.3,0
				c-5.2,2.6-8.3,4.2-12.8,10.4c1.4,7.4,0.2,11-3.2,17.2c3.9-9.9,1.8-23.9-8.2-29.6c-0.1-0.1-0.2,0-0.3,0.1c-0.1,0.1-0.1,0.2,0,0.3
				c3.8,4,6.5,10.6,4.2,17.9c1.5-10.4-7.6-19.1-17.8-19.1c-9.6,0-16.2,7.5-15.6,14.9c0.5,7.4,5.4,11,9.7,12.5c0.1,0,0.2,0,0.3-0.1
				c0.1-0.1,0-0.2,0-0.3c-5.6-5.7-6.4-16.5,3.6-19.8c-5.9,5.1-3.7,16.8,5.7,17.7c0.1,0,0.2-0.1,0.3-0.2c0-0.1,0-0.2-0.1-0.3
				c-2-1.3-3.7-3.8-3.7-6.6c0-4.7,3.4-6.5,5.7-6.5c3.4,0,6.3,3.3,6.3,8.2c0,5.8-5.3,10.7-12,11.4C9.6-40,3.4-42.9,0.5-47.2
				c-0.1-0.1-0.2-0.1-0.3-0.1C0-47.3,0-47.1,0-47c3,11.7,16.8,16.9,26.9,9.5c-6.6,7.5-17,7.6-25.7-0.1c-0.1-0.1-0.2-0.1-0.3,0
				c-0.1,0.1-0.1,0.2-0.1,0.3c2.7,5.4,9.3,11.8,18.6,10.9c8.6-0.9,13.5-9,14.5-15.7c0.6,8.5-1.4,14.5-8.8,20.1
				c-0.1,0.1-0.1,0.2-0.1,0.3c0.1,0.1,0.2,0.2,0.3,0.1c6.8-2,12.2-5.4,15-12.5c0,6.2-2.1,12.4-7.5,16.5c-0.1,0.1-0.1,0.2-0.1,0.3
				c0.1,0.1,0.2,0.2,0.3,0.1c3.5-1,6.2-2.5,8.1-5.2c1.3,11.1,6.5,17.7,12.5,17.7c4.1,0,7.2-3,7.2-7.9C61-15.3,59.5-19.3,56.2-21.5z
				 M155.4-113.1c-3.2-3.9-9.5-5.4-16.4-4c0.5-4.3-0.3-8.8-1.6-11.5c-0.1-0.1-0.2-0.2-0.3-0.1c-0.1,0-0.2,0.1-0.2,0.3
				c0.4,8.8-4.6,15.8-13.4,18.9c6.9-4.8,8.9-14.2,5.6-19.1c-0.1-0.1-0.2-0.1-0.3-0.1c-0.1,0-0.2,0.2-0.2,0.3
				c0.4,2.1-0.6,4.7-2.7,6.7c-2.9,2.8-6.8,3.5-8.8,1.4c-2-2-1.2-5.9,1.7-8.8c1.1-1,2.3-1.8,3.4-2.2c0.1,0,0.2-0.2,0.2-0.3
				c0-0.1-0.1-0.2-0.2-0.2c-6.4-0.6-10.8,3.3-13.5,7.9c-2.8,4.7-7.6,8.4-13.2,7.7c-0.1,0-0.2,0.1-0.3,0.2c0,0.1,0,0.2,0.1,0.3
				c2.8,1.7,5.9,2.4,9.9,1.1c-5.8,4.9-14,7.7-21.8,5.2c-0.1,0-0.2,0-0.3,0.1c-0.1,0.1-0.1,0.2,0,0.3c5.9,6.6,17.7,6.7,25.1,1.4
				c-3,4.3-7.1,7.5-14.3,8.5c-0.1,0-0.2,0.1-0.2,0.2c0,0.1,0.1,0.2,0.2,0.3c8.3,3.1,16.6,0,23.4-8.2c-3,6.4-7.9,11.5-14.8,14
				c-0.1,0-0.2,0.2-0.2,0.3c0,0.1,0.1,0.2,0.2,0.2c3.9,0.1,7.5-0.9,12.3-3.6c-3.5,5.7-2.7,15.6,2.4,22.3c0.1,0.1,0.2,0.1,0.3,0.1
				c0.1,0,0.2-0.2,0.1-0.3c-1.2-7.2,1.3-15.3,5.6-19.6c-2.2,7.6,0,14.6,5.9,19.6c0.1,0.1,0.2,0.1,0.3,0c0.1,0,0.1-0.1,0.2-0.2
				c1.2-9.4,11.8-19,20.6-19.8c0.1,0,0.2-0.1,0.2-0.2c0-0.1-0.1-0.2-0.2-0.3c-4.3-1-8.7-0.5-12.4,1c2.7-2.9,5.9-5.1,9.6-6.2
				c0.1,0,0.2-0.2,0.2-0.3c0-0.1-0.1-0.2-0.2-0.2c-4.5-0.3-8.9,1-12.7,3.5c4.4-6.6,11-11.5,19.4-13.5c0.1,0,0.2-0.1,0.2-0.3
				c0-0.1-0.1-0.2-0.2-0.2c-11.9-1.3-21.7,3.3-28.2,11.9c1.6-4.9,6.4-9.8,12.9-12.6c5.8-2.5,11.8-2.9,16.4-1.5c0.1,0,0.2,0,0.3-0.1
				C155.5-112.9,155.5-113,155.4-113.1z M102.5-37.5c4.8-10.5,4.5-18.7,0.6-29.1c0-0.1-0.2-0.2-0.3-0.2c-0.1,0-0.2,0.1-0.2,0.3
				c0.6,12.6-2.8,21.7-10.3,27.8c8.3-9.9,4.4-29.6-8.8-29.6c-9.6,0-17.5,8-19.5,17.5c0,0.1,0,0.2,0.2,0.3c0.1,0,0.2,0,0.3-0.1
				c2.8-4.8,7.4-7.9,12.5-7.9c8.1,0,10.5,6.5,10.5,11c0,6.2-4.9,11.3-8.7,11.3c-3.4,0-5-2.8-5-4.9c0-3.9,3-7.2,6.4-8.2
				c0.1,0,0.2-0.2,0.2-0.3c0-0.1-0.1-0.2-0.3-0.2c-4.1,0-7.6,1.9-9.6,5.6c-0.3-2.9-0.3-4.7,0.6-7.7c0-0.1,0-0.2-0.1-0.3
				c-0.1-0.1-0.2,0-0.3,0.1c-7.4,9.4-3.8,25.6,2,32.4c-5.5-4-10.4-12.6-10.3-24.4c0-0.1-0.1-0.2-0.2-0.3c-0.1,0-0.2,0-0.3,0.2
				c-4.1,10.3-1.9,29.2,9.3,39.9c-2.9,0.4-5.9,0.3-9.1-0.7c-0.1,0-0.2,0-0.3,0.1c-0.1,0.1,0,0.2,0.1,0.3C65.8-1.1,71.5,0,77,0
				c-4.7-5.5-3.1-16.6,4.4-16.6c5.3,0,7.8,8.3,3.6,12.8c-0.1,0.1-0.1,0.2,0,0.3c0.1,0.1,0.2,0.1,0.3,0.1c4.8-1.7,9.9-5.8,9.9-11
				c0-5-4.8-9.4-11.8-9.1c8.8-2.5,18.1,0.3,22.9,6.3c0.1,0.1,0.2,0.1,0.3,0.1c0.1-0.1,0.2-0.2,0.1-0.3c-2.8-10.7-12-15.2-23.4-13.7
				c9.3-3.8,23.2-0.5,29.4,7.3c0.1,0.1,0.2,0.1,0.3,0.1c0.1-0.1,0.2-0.2,0.1-0.3C111.8-30.6,108.3-35.6,102.5-37.5z"/>
			<path class="st2" d="M128.9-56.8c0,0.1-0.1,0.2-0.2,0.2c-12.9,0.1-24.8,3.3-34,11.5c8-5.6,22.9-7.5,31.5-3.6
				c0.1,0.1,0.2,0.2,0.1,0.3c0,0.1-0.1,0.2-0.3,0.2c-10.7-0.3-19.3,3-26,9c6.9,0.4,12.6,4.7,12.6,9.8c0,0.1-0.1,0.2-0.2,0.2
				c-0.1,0-0.2,0-0.3-0.1c-1.1-2.5-4.7-3.8-8.6-2.9c-4.2,1-7,4.2-6.3,7.2c0.5,2,2.4,3.4,5,3.8c0.1,0,0.2,0.1,0.2,0.3
				c0,0.1-0.1,0.2-0.2,0.2c-1.1,0.1-2.2,0.1-3.3,0c-6.5-0.6-11.5-4.6-11.9-9.2c-4.7,0.5-8.9,3.2-10.4,6.8c0,0.1-0.2,0.2-0.3,0.2
				c-0.1,0-0.2-0.1-0.2-0.2c-0.4-4.8,1.3-7.8,5-10.9c-5.4,2.1-11.4,2.2-17.3-0.5c-0.1-0.1-0.2-0.2-0.1-0.3c0-0.1,0.1-0.2,0.2-0.2
				c4.9-0.2,8.4-1.8,11.7-5.1c-18.3,5.1-33.1-6.2-28-23.1c0-0.1,0.1-0.2,0.3-0.2c0.1,0,0.2,0.1,0.2,0.2C49.1-53.4,55.9-47,66-46.1
				c-5.4-2.1-11-7-11.6-15.5c0-0.1,0.1-0.2,0.2-0.3c0.1,0,0.2,0,0.3,0.1c2.8,6.2,8.3,9.3,14.2,9.8c-6.3-2.6-10.4-8.6-11.6-16.4
				c0-0.1,0.1-0.2,0.2-0.3c0.1,0,0.2,0,0.3,0.1c3.9,7.6,12.2,12.8,22.4,8.8c10.6-4.1,15.3-16.4,16.3-25c0-0.1,0.1-0.2,0.2-0.2
				c0.1,0,0.2,0.1,0.3,0.2c3.7,15.7-3.6,31.9-16.6,38.8c7.1-2,13.4-6.3,17-13.4c8.3-1,14-3.9,16.9-9.2c0.1-0.1,0.2-0.2,0.3-0.1
				c0.1,0,0.2,0.1,0.2,0.3c-0.2,2.1-0.9,6.3-4.1,8.3c7,0,12.5,0.9,17.8,3C128.8-57,128.9-56.9,128.9-56.8z M99.4-110.3
				c0.1,0.1,0.2,0.1,0.3,0c0.1-0.1,0.1-0.2,0-0.3c-1.6-2.8-0.1-6.8,3.1-6.8c5.7,0,8.5,10.8,7.6,20.6c-2.2-5.8-4-8.1-7.3-10.8
				c-0.1-0.1-0.2-0.1-0.3,0c-0.1,0.1-0.1,0.2-0.1,0.3c4.9,9.1,5.9,16.1,5.9,24.1c-1.5-6-3.2-9.3-8.1-14.4c-0.1-0.1-0.2-0.1-0.3,0
				c-0.1,0.1-0.1,0.2-0.1,0.3c5.3,11.6,4.9,24.4,0.9,34.3c0,0.1,0,0.2,0.1,0.3c0.1,0.1,0.2,0.1,0.3,0c5.2-2.6,8.3-4.2,12.8-10.4
				c-1.4-7.4-0.2-11,3.2-17.2c-3.9,9.9-1.8,23.9,8.2,29.6c0.1,0.1,0.2,0,0.3-0.1c0.1-0.1,0.1-0.2,0-0.3c-3.8-4-6.5-10.6-4.2-17.9
				c-1.5,10.4,7.6,19.1,17.8,19.1c9.6,0,16.2-7.5,15.6-14.9c-0.5-7.4-5.4-11-9.7-12.5c-0.1,0-0.2,0-0.3,0.1c-0.1,0.1-0.1,0.2,0,0.3
				c5.6,5.7,6.4,16.5-3.6,19.8c5.9-5.1,3.7-16.8-5.7-17.7c-0.1,0-0.2,0.1-0.3,0.2c0,0.1,0,0.2,0.1,0.3c2,1.3,3.7,3.8,3.7,6.6
				c0,4.7-3.4,6.5-5.7,6.5c-3.4,0-6.3-3.3-6.3-8.2c0-5.8,5.3-10.7,12-11.4c6.6-0.7,12.8,2.2,15.8,6.5c0.1,0.1,0.2,0.1,0.3,0.1
				c0.1-0.1,0.2-0.2,0.1-0.3c-3-11.7-16.8-16.9-26.9-9.5c6.6-7.5,17-7.6,25.7,0.1c0.1,0.1,0.2,0.1,0.3,0c0.1-0.1,0.1-0.2,0.1-0.3
				c-2.7-5.4-9.3-11.8-18.6-10.9c-8.6,0.9-13.5,9-14.5,15.7c-0.6-8.5,1.4-14.5,8.8-20.1c0.1-0.1,0.1-0.2,0.1-0.3
				c-0.1-0.1-0.2-0.2-0.3-0.1c-6.8,2-12.2,5.4-15,12.5c0-6.2,2.1-12.4,7.5-16.5c0.1-0.1,0.1-0.2,0.1-0.3c-0.1-0.1-0.2-0.2-0.3-0.1
				c-3.5,1-6.2,2.5-8.1,5.2c-1.3-11.1-6.5-17.7-12.5-17.7c-4.1,0-7.2,3-7.2,7.9C94.6-116.5,96.1-112.5,99.4-110.3z M0.2-18.7
				c3.2,3.9,9.5,5.4,16.4,4c-0.5,4.3,0.3,8.8,1.6,11.5C18.3-3.1,18.4-3,18.5-3c0.1,0,0.2-0.1,0.2-0.3c-0.4-8.8,4.6-15.8,13.4-18.9
				C25.2-17.5,23.2-8,26.5-3.2c0.1,0.1,0.2,0.1,0.3,0.1c0.1,0,0.2-0.2,0.2-0.3c-0.4-2.1,0.6-4.7,2.7-6.7c2.9-2.8,6.8-3.5,8.8-1.4
				c2,2,1.2,5.9-1.7,8.8c-1.1,1-2.3,1.8-3.4,2.2c-0.1,0-0.2,0.2-0.2,0.3c0,0.1,0.1,0.2,0.2,0.2c6.4,0.6,10.8-3.3,13.5-7.9
				c2.8-4.7,7.6-8.4,13.2-7.7c0.1,0,0.2-0.1,0.3-0.2c0-0.1,0-0.2-0.1-0.3c-2.8-1.7-5.9-2.4-9.9-1.1c5.8-4.9,14-7.7,21.8-5.2
				c0.1,0,0.2,0,0.3-0.1c0.1-0.1,0.1-0.2,0-0.3c-5.9-6.6-17.7-6.7-25.1-1.4c3-4.3,7.1-7.5,14.3-8.5c0.1,0,0.2-0.1,0.2-0.2
				c0-0.1-0.1-0.2-0.2-0.3c-8.3-3.1-16.6,0-23.4,8.2c3-6.4,7.9-11.5,14.8-14c0.1,0,0.2-0.2,0.2-0.3c0-0.1-0.1-0.2-0.2-0.2
				c-3.9-0.1-7.5,0.9-12.3,3.6c3.5-5.7,2.7-15.6-2.4-22.3c-0.1-0.1-0.2-0.1-0.3-0.1c-0.1,0-0.2,0.2-0.1,0.3
				c1.2,7.2-1.3,15.3-5.6,19.6c2.2-7.6,0-14.6-5.9-19.6c-0.1-0.1-0.2-0.1-0.3,0c-0.1,0-0.1,0.1-0.2,0.2c-1.2,9.4-11.8,19-20.6,19.8
				c-0.1,0-0.2,0.1-0.2,0.2c0,0.1,0.1,0.2,0.2,0.3c4.3,1,8.7,0.5,12.4-1c-2.7,2.9-5.9,5.1-9.6,6.2C8.1-32.2,8-32.1,8-32
				c0,0.1,0.1,0.2,0.2,0.2c4.5,0.3,8.9-1,12.7-3.5c-4.4,6.6-11,11.5-19.4,13.5c-0.1,0-0.2,0.1-0.2,0.3c0,0.1,0.1,0.2,0.2,0.2
				c11.9,1.3,21.7-3.3,28.2-11.9c-1.6,4.9-6.4,9.8-12.9,12.6C11-18,5-17.6,0.4-19.1c-0.1,0-0.2,0-0.3,0.1
				C0.1-18.9,0.1-18.7,0.2-18.7z M53.1-94.2c-4.8,10.5-4.5,18.7-0.6,29.1c0,0.1,0.2,0.2,0.3,0.2c0.1,0,0.2-0.1,0.2-0.3
				c-0.6-12.6,2.8-21.7,10.3-27.8c-8.3,9.9-4.4,29.6,8.8,29.6c9.6,0,17.5-8,19.5-17.5c0-0.1,0-0.2-0.2-0.3c-0.1,0-0.2,0-0.3,0.1
				c-2.8,4.8-7.4,7.9-12.5,7.9c-8.1,0-10.5-6.5-10.5-11c0-6.2,4.9-11.3,8.7-11.3c3.4,0,5,2.8,5,4.9c0,3.9-3,7.2-6.4,8.2
				c-0.1,0-0.2,0.2-0.2,0.3s0.1,0.2,0.3,0.2c4.1,0,7.6-1.9,9.6-5.6c0.3,2.9,0.3,4.7-0.6,7.7c0,0.1,0,0.2,0.1,0.3
				c0.1,0.1,0.2,0,0.3-0.1c7.4-9.4,3.8-25.6-2-32.4c5.5,4,10.4,12.6,10.3,24.4c0,0.1,0.1,0.2,0.2,0.3c0.1,0,0.2,0,0.3-0.2
				c4.1-10.3,1.9-29.2-9.3-39.9c2.9-0.4,5.9-0.3,9.1,0.7c0.1,0,0.2,0,0.3-0.1c0.1-0.1,0-0.2-0.1-0.3c-4.1-3.5-9.8-4.5-15.3-4.5
				c4.7,5.5,3.1,16.6-4.4,16.6c-5.3,0-7.8-8.3-3.6-12.8c0.1-0.1,0.1-0.2,0-0.3c-0.1-0.1-0.2-0.1-0.3-0.1c-4.8,1.7-9.9,5.8-9.9,11
				c0,5,4.8,9.4,11.8,9.1c-8.8,2.5-18.1-0.3-22.9-6.3c-0.1-0.1-0.2-0.1-0.3-0.1c-0.1,0.1-0.2,0.2-0.1,0.3
				c2.8,10.7,12,15.2,23.4,13.7c-9.3,3.8-23.3,0.5-29.4-7.3c-0.1-0.1-0.2-0.1-0.3-0.1c-0.1,0-0.2,0.2-0.1,0.3
				C43.8-101.1,47.3-96.2,53.1-94.2z"/>
		</g>
		<g>
			<path class="st1" d="M135-184.6c0-0.1,0.1-0.2,0.2-0.2c12.9-0.1,24.8-3.3,34-11.5c-8,5.6-22.9,7.5-31.5,3.6
				c-0.1,0-0.2-0.2-0.1-0.3c0-0.1,0.1-0.2,0.3-0.2c10.7,0.3,19.3-3,26-9c-6.9-0.4-12.6-4.7-12.6-9.8c0-0.1,0.1-0.2,0.2-0.2
				c0.1,0,0.2,0,0.3,0.1c1.1,2.5,4.7,3.8,8.6,2.9c4.2-1,7-4.2,6.3-7.2c-0.5-2-2.4-3.4-5-3.8c-0.1,0-0.2-0.1-0.2-0.3
				c0-0.1,0.1-0.2,0.2-0.2c1.1-0.1,2.2-0.1,3.3,0c6.5,0.6,11.5,4.6,11.9,9.2c4.7-0.5,8.9-3.2,10.4-6.8c0-0.1,0.2-0.2,0.3-0.2
				c0.1,0,0.2,0.1,0.2,0.2c0.4,4.8-1.3,7.8-5,10.9c5.4-2.1,11.4-2.2,17.3,0.5c0.1,0,0.2,0.2,0.1,0.3c0,0.1-0.1,0.2-0.2,0.2
				c-4.9,0.2-8.4,1.8-11.7,5.1c18.3-5.1,33.1,6.2,28,23.1c0,0.1-0.1,0.2-0.3,0.2c-0.1,0-0.2-0.1-0.2-0.2
				c-0.9-9.7-7.7-16.1-17.9-17.1c5.4,2.1,11,7,11.6,15.5c0,0.1-0.1,0.2-0.2,0.3c-0.1,0-0.2,0-0.3-0.1c-2.8-6.2-8.3-9.3-14.2-9.8
				c6.3,2.6,10.4,8.6,11.6,16.4c0,0.1-0.1,0.2-0.2,0.3c-0.1,0-0.2,0-0.3-0.1c-3.9-7.6-12.2-12.8-22.4-8.8
				c-10.6,4.1-15.3,16.4-16.3,25c0,0.1-0.1,0.2-0.2,0.2c-0.1,0-0.2-0.1-0.3-0.2c-3.7-15.7,3.6-31.9,16.6-38.8
				c-7.1,2-13.4,6.3-17,13.4c-8.3,1-14,3.9-16.9,9.2c-0.1,0.1-0.2,0.2-0.3,0.1c-0.1,0-0.2-0.1-0.2-0.3c0.2-2.1,0.9-6.3,4.1-8.3
				c-7,0-12.5-0.9-17.8-3C135.1-184.3,135-184.5,135-184.6z M164.5-131.1c-0.1-0.1-0.2-0.1-0.3,0c-0.1,0.1-0.1,0.2,0,0.3
				c1.6,2.8,0.1,6.8-3.1,6.8c-5.7,0-8.5-10.8-7.6-20.6c2.2,5.8,4,8.1,7.3,10.8c0.1,0.1,0.2,0.1,0.3,0c0.1-0.1,0.1-0.2,0.1-0.3
				c-4.9-9.1-5.9-16.1-5.9-24.1c1.5,6,3.2,9.3,8.1,14.4c0.1,0.1,0.2,0.1,0.3,0c0.1-0.1,0.1-0.2,0.1-0.3c-5.3-11.6-4.9-24.4-0.9-34.3
				c0-0.1,0-0.2-0.1-0.3c-0.1-0.1-0.2-0.1-0.3,0c-5.2,2.6-8.3,4.2-12.8,10.4c1.4,7.4,0.2,11-3.2,17.2c3.9-9.9,1.8-23.9-8.2-29.6
				c-0.1-0.1-0.2,0-0.3,0.1c-0.1,0.1-0.1,0.2,0,0.3c3.8,4,6.5,10.6,4.2,17.9c1.5-10.4-7.6-19.1-17.8-19.1c-9.6,0-16.2,7.5-15.6,14.9
				c0.5,7.4,5.4,11,9.7,12.5c0.1,0,0.2,0,0.3-0.1c0.1-0.1,0-0.2,0-0.3c-5.6-5.7-6.4-16.5,3.6-19.8c-5.9,5.1-3.7,16.8,5.7,17.7
				c0.1,0,0.2-0.1,0.3-0.2c0-0.1,0-0.2-0.1-0.3c-2-1.3-3.7-3.8-3.7-6.6c0-4.7,3.4-6.5,5.7-6.5c3.4,0,6.3,3.3,6.3,8.2
				c0,5.8-5.3,10.7-12,11.4c-6.6,0.7-12.8-2.2-15.8-6.5c-0.1-0.1-0.2-0.1-0.3-0.1c-0.1,0.1-0.2,0.2-0.1,0.3
				c3,11.7,16.8,16.9,26.9,9.5c-6.6,7.5-17,7.6-25.7-0.1c-0.1-0.1-0.2-0.1-0.3,0c-0.1,0.1-0.1,0.2-0.1,0.3
				c2.7,5.4,9.3,11.8,18.6,10.9c8.6-0.9,13.5-9,14.5-15.7c0.6,8.5-1.4,14.5-8.8,20.1c-0.1,0.1-0.1,0.2-0.1,0.3
				c0.1,0.1,0.2,0.2,0.3,0.1c6.8-2,12.2-5.4,15-12.5c0,6.2-2.1,12.4-7.5,16.5c-0.1,0.1-0.1,0.2-0.1,0.3s0.2,0.2,0.3,0.1
				c3.5-1,6.2-2.5,8.1-5.2c1.3,11.1,6.5,17.7,12.5,17.7c4.1,0,7.2-3,7.2-7.9C169.3-124.9,167.8-128.9,164.5-131.1z M263.7-222.7
				c-3.2-3.9-9.5-5.4-16.4-4c0.5-4.3-0.3-8.8-1.6-11.5c-0.1-0.1-0.2-0.2-0.3-0.1c-0.1,0-0.2,0.1-0.2,0.3c0.4,8.8-4.6,15.8-13.4,18.9
				c6.9-4.8,8.9-14.2,5.6-19.1c-0.1-0.1-0.2-0.1-0.3-0.1c-0.1,0-0.2,0.2-0.2,0.3c0.4,2.1-0.6,4.7-2.7,6.7c-2.9,2.8-6.8,3.5-8.8,1.4
				c-2-2-1.2-5.9,1.7-8.8c1.1-1,2.3-1.8,3.4-2.2c0.1,0,0.2-0.2,0.2-0.3c0-0.1-0.1-0.2-0.2-0.2c-6.4-0.6-10.8,3.3-13.5,7.9
				c-2.8,4.7-7.6,8.4-13.2,7.7c-0.1,0-0.2,0.1-0.3,0.2c0,0.1,0,0.2,0.1,0.3c2.8,1.7,5.9,2.4,9.9,1.1c-5.8,4.9-14,7.7-21.8,5.2
				c-0.1,0-0.2,0-0.3,0.1c-0.1,0.1-0.1,0.2,0,0.3c5.9,6.6,17.7,6.7,25.1,1.4c-3,4.3-7.1,7.5-14.3,8.5c-0.1,0-0.2,0.1-0.2,0.2
				c0,0.1,0.1,0.2,0.2,0.3c8.3,3.1,16.6,0,23.4-8.2c-3,6.4-7.9,11.5-14.8,14c-0.1,0-0.2,0.2-0.2,0.3c0,0.1,0.1,0.2,0.2,0.2
				c3.9,0.1,7.5-0.9,12.3-3.6c-3.5,5.7-2.7,15.6,2.4,22.3c0.1,0.1,0.2,0.1,0.3,0.1c0.1,0,0.2-0.2,0.1-0.3
				c-1.2-7.2,1.3-15.3,5.6-19.6c-2.2,7.6,0,14.6,5.9,19.6c0.1,0.1,0.2,0.1,0.3,0c0.1,0,0.1-0.1,0.2-0.2c1.2-9.4,11.8-19,20.6-19.8
				c0.1,0,0.2-0.1,0.2-0.2c0-0.1-0.1-0.2-0.2-0.3c-4.3-1-8.7-0.5-12.4,1c2.7-2.9,5.9-5.1,9.6-6.2c0.1,0,0.2-0.2,0.2-0.3
				c0-0.1-0.1-0.2-0.2-0.2c-4.5-0.3-8.9,1-12.7,3.5c4.4-6.6,11-11.5,19.4-13.5c0.1,0,0.2-0.1,0.2-0.3c0-0.1-0.1-0.2-0.2-0.2
				c-11.9-1.3-21.7,3.3-28.2,11.9c1.6-4.9,6.4-9.8,12.9-12.6c5.8-2.5,11.9-2.9,16.4-1.5c0.1,0,0.2,0,0.3-0.1
				C263.8-222.5,263.8-222.6,263.7-222.7z M210.8-147.2c4.8-10.5,4.5-18.7,0.6-29.1c0-0.1-0.2-0.2-0.3-0.2c-0.1,0-0.2,0.1-0.2,0.3
				c0.6,12.6-2.8,21.7-10.3,27.8c8.3-9.9,4.4-29.6-8.8-29.6c-9.6,0-17.5,8-19.5,17.5c0,0.1,0,0.2,0.2,0.3c0.1,0,0.2,0,0.3-0.1
				c2.8-4.8,7.4-7.9,12.5-7.9c8.1,0,10.5,6.5,10.5,11c0,6.2-4.9,11.3-8.7,11.3c-3.4,0-5-2.8-5-4.9c0-3.9,3-7.2,6.4-8.2
				c0.1,0,0.2-0.2,0.2-0.3c0-0.1-0.1-0.2-0.3-0.2c-4.1,0-7.6,1.9-9.6,5.6c-0.3-2.9-0.3-4.7,0.6-7.7c0-0.1,0-0.2-0.1-0.3
				c-0.1-0.1-0.2,0-0.3,0.1c-7.4,9.4-3.8,25.6,2,32.4c-5.5-4-10.4-12.6-10.3-24.4c0-0.1-0.1-0.2-0.2-0.3c-0.1,0-0.2,0-0.3,0.2
				c-4.1,10.3-1.9,29.2,9.3,39.9c-2.9,0.4-5.9,0.3-9.1-0.7c-0.1,0-0.2,0-0.3,0.1c-0.1,0.1,0,0.2,0.1,0.3c4.1,3.5,9.8,4.5,15.3,4.5
				c-4.7-5.5-3.1-16.6,4.4-16.6c5.3,0,7.8,8.3,3.6,12.8c-0.1,0.1-0.1,0.2,0,0.3c0.1,0.1,0.2,0.1,0.3,0.1c4.8-1.7,9.9-5.8,9.9-11
				c0-5-4.8-9.4-11.8-9.1c8.8-2.5,18.1,0.3,22.9,6.3c0.1,0.1,0.2,0.1,0.3,0.1c0.1-0.1,0.2-0.2,0.1-0.3c-2.8-10.7-12-15.2-23.4-13.7
				c9.3-3.8,23.3-0.5,29.4,7.3c0.1,0.1,0.2,0.1,0.3,0.1c0.1-0.1,0.2-0.2,0.1-0.3C220.1-140.3,216.6-145.2,210.8-147.2z"/>
			<path class="st2" d="M237.2-166.5c0,0.1-0.1,0.2-0.2,0.2c-12.9,0.1-24.8,3.3-34,11.5c8-5.6,22.9-7.5,31.5-3.6
				c0.1,0.1,0.2,0.2,0.1,0.3c0,0.1-0.1,0.2-0.3,0.2c-10.7-0.3-19.3,3-26,9c6.9,0.4,12.6,4.7,12.6,9.8c0,0.1-0.1,0.2-0.2,0.2
				c-0.1,0-0.2,0-0.3-0.1c-1.1-2.5-4.7-3.8-8.6-2.9c-4.2,1-7,4.2-6.3,7.2c0.5,2,2.4,3.4,5,3.8c0.1,0,0.2,0.1,0.2,0.3
				c0,0.1-0.1,0.2-0.2,0.2c-1.1,0.1-2.2,0.1-3.3,0c-6.5-0.6-11.5-4.6-11.9-9.2c-4.7,0.5-8.9,3.2-10.4,6.8c0,0.1-0.2,0.2-0.3,0.2
				c-0.1,0-0.2-0.1-0.2-0.2c-0.4-4.8,1.3-7.8,5-10.9c-5.4,2.1-11.4,2.2-17.3-0.5c-0.1-0.1-0.2-0.2-0.1-0.3c0-0.1,0.1-0.2,0.2-0.2
				c4.9-0.2,8.4-1.8,11.7-5.1c-18.3,5.1-33.1-6.2-28-23.1c0-0.1,0.1-0.2,0.3-0.2s0.2,0.1,0.2,0.2c0.9,9.7,7.7,16.1,17.9,17.1
				c-5.4-2.1-11-7-11.6-15.5c0-0.1,0.1-0.2,0.2-0.3c0.1,0,0.2,0,0.3,0.1c2.8,6.2,8.3,9.3,14.2,9.8c-6.3-2.6-10.4-8.6-11.6-16.4
				c0-0.1,0.1-0.2,0.2-0.3c0.1,0,0.2,0,0.3,0.1c3.9,7.6,12.2,12.8,22.4,8.8c10.6-4.1,15.3-16.4,16.3-25c0-0.1,0.1-0.2,0.2-0.2
				c0.1,0,0.2,0.1,0.3,0.2c3.7,15.7-3.6,31.9-16.6,38.8c7.1-2,13.4-6.3,17-13.4c8.3-1,14-3.9,16.9-9.2c0.1-0.1,0.2-0.2,0.3-0.1
				c0.1,0,0.2,0.1,0.2,0.3c-0.2,2.1-0.9,6.3-4.1,8.3c7,0,12.5,0.9,17.8,3C237.2-166.7,237.2-166.6,237.2-166.5z M207.7-219.9
				c0.1,0.1,0.2,0.1,0.3,0c0.1-0.1,0.1-0.2,0-0.3c-1.6-2.8-0.1-6.8,3.1-6.8c5.7,0,8.5,10.8,7.6,20.6c-2.2-5.8-4-8.1-7.3-10.8
				c-0.1-0.1-0.2-0.1-0.3,0c-0.1,0.1-0.1,0.2-0.1,0.3c4.9,9.1,5.9,16.1,5.9,24.1c-1.5-6-3.2-9.3-8.1-14.4c-0.1-0.1-0.2-0.1-0.3,0
				c-0.1,0.1-0.1,0.2-0.1,0.3c5.3,11.6,4.9,24.4,0.9,34.3c0,0.1,0,0.2,0.1,0.3c0.1,0.1,0.2,0.1,0.3,0c5.2-2.6,8.3-4.2,12.8-10.4
				c-1.4-7.4-0.2-11,3.2-17.2c-3.9,9.9-1.8,23.9,8.2,29.6c0.1,0.1,0.2,0,0.3-0.1c0.1-0.1,0.1-0.2,0-0.3c-3.8-4-6.5-10.6-4.2-17.9
				c-1.5,10.4,7.6,19.1,17.8,19.1c9.6,0,16.2-7.5,15.6-14.9c-0.5-7.4-5.4-11-9.7-12.5c-0.1,0-0.2,0-0.3,0.1c-0.1,0.1-0.1,0.2,0,0.3
				c5.6,5.7,6.4,16.5-3.6,19.8c5.9-5.1,3.7-16.8-5.7-17.7c-0.1,0-0.2,0.1-0.3,0.2c0,0.1,0,0.2,0.1,0.3c2,1.3,3.7,3.8,3.7,6.6
				c0,4.7-3.4,6.5-5.7,6.5c-3.4,0-6.3-3.3-6.3-8.2c0-5.8,5.3-10.7,12-11.4c6.6-0.7,12.8,2.2,15.8,6.5c0.1,0.1,0.2,0.1,0.3,0.1
				c0.1-0.1,0.2-0.2,0.1-0.3c-3-11.7-16.8-16.9-26.9-9.5c6.6-7.5,17-7.6,25.7,0.1c0.1,0.1,0.2,0.1,0.3,0c0.1-0.1,0.1-0.2,0.1-0.3
				c-2.7-5.4-9.3-11.8-18.6-10.9c-8.6,0.9-13.5,9-14.5,15.7c-0.6-8.5,1.4-14.5,8.8-20.1c0.1-0.1,0.1-0.2,0.1-0.3s-0.2-0.2-0.3-0.1
				c-6.8,2-12.2,5.4-15,12.5c0-6.2,2.1-12.4,7.5-16.5c0.1-0.1,0.1-0.2,0.1-0.3c-0.1-0.1-0.2-0.2-0.3-0.1c-3.5,1-6.2,2.5-8.1,5.2
				c-1.3-11.1-6.5-17.7-12.5-17.7c-4.1,0-7.2,3-7.2,7.9C202.9-226.1,204.4-222.1,207.7-219.9z M108.5-128.3c3.2,3.9,9.5,5.4,16.4,4
				c-0.5,4.3,0.3,8.8,1.6,11.5c0.1,0.1,0.2,0.2,0.3,0.1c0.1,0,0.2-0.1,0.2-0.3c-0.4-8.8,4.6-15.8,13.4-18.9
				c-6.9,4.8-8.9,14.2-5.6,19.1c0.1,0.1,0.2,0.1,0.3,0.1c0.1,0,0.2-0.2,0.2-0.3c-0.4-2.1,0.6-4.7,2.7-6.7c2.9-2.8,6.8-3.5,8.8-1.4
				c2,2,1.2,5.9-1.7,8.8c-1.1,1-2.3,1.8-3.4,2.2c-0.1,0-0.2,0.2-0.2,0.3c0,0.1,0.1,0.2,0.2,0.2c6.4,0.6,10.8-3.3,13.5-7.9
				c2.8-4.7,7.6-8.4,13.2-7.7c0.1,0,0.2-0.1,0.3-0.2c0-0.1,0-0.2-0.1-0.3c-2.8-1.7-5.9-2.4-9.9-1.1c5.8-4.9,14-7.7,21.8-5.2
				c0.1,0,0.2,0,0.3-0.1c0.1-0.1,0.1-0.2,0-0.3c-5.9-6.6-17.7-6.7-25.1-1.4c3-4.3,7.1-7.5,14.3-8.5c0.1,0,0.2-0.1,0.2-0.2
				c0-0.1-0.1-0.2-0.2-0.3c-8.3-3.1-16.6,0-23.4,8.2c3-6.4,7.9-11.5,14.8-14c0.1,0,0.2-0.2,0.2-0.3c0-0.1-0.1-0.2-0.2-0.2
				c-3.9-0.1-7.5,0.9-12.3,3.6c3.5-5.7,2.7-15.6-2.4-22.3c-0.1-0.1-0.2-0.1-0.3-0.1c-0.1,0-0.2,0.2-0.1,0.3
				c1.2,7.2-1.3,15.3-5.6,19.6c2.2-7.6,0-14.6-5.9-19.6c-0.1-0.1-0.2-0.1-0.3,0c-0.1,0-0.1,0.1-0.2,0.2c-1.2,9.4-11.8,19-20.6,19.8
				c-0.1,0-0.2,0.1-0.2,0.2c0,0.1,0.1,0.2,0.2,0.3c4.3,1,8.7,0.5,12.4-1c-2.7,2.9-5.9,5.1-9.6,6.2c-0.1,0-0.2,0.2-0.2,0.3
				c0,0.1,0.1,0.2,0.2,0.2c4.5,0.3,8.9-1,12.7-3.5c-4.4,6.6-11,11.5-19.4,13.5c-0.1,0-0.2,0.1-0.2,0.3c0,0.1,0.1,0.2,0.2,0.2
				c11.9,1.3,21.7-3.3,28.2-11.9c-1.6,4.9-6.4,9.8-12.9,12.6c-5.8,2.5-11.8,2.9-16.4,1.5c-0.1,0-0.2,0-0.3,0.1
				C108.4-128.5,108.4-128.4,108.5-128.3z M161.4-203.9c-4.8,10.5-4.5,18.7-0.6,29.1c0,0.1,0.2,0.2,0.3,0.2c0.1,0,0.2-0.1,0.2-0.3
				c-0.6-12.6,2.8-21.7,10.3-27.8c-8.3,9.9-4.4,29.6,8.8,29.6c9.6,0,17.5-8,19.5-17.5c0-0.1,0-0.2-0.2-0.3c-0.1,0-0.2,0-0.3,0.1
				c-2.8,4.8-7.4,7.9-12.5,7.9c-8.1,0-10.5-6.5-10.5-11c0-6.2,4.9-11.3,8.7-11.3c3.4,0,5,2.8,5,4.9c0,3.9-3,7.2-6.4,8.2
				c-0.1,0-0.2,0.2-0.2,0.3c0,0.1,0.1,0.2,0.3,0.2c4.1,0,7.6-1.9,9.6-5.6c0.3,2.9,0.3,4.7-0.6,7.7c0,0.1,0,0.2,0.1,0.3
				c0.1,0.1,0.2,0,0.3-0.1c7.4-9.4,3.8-25.6-2-32.4c5.5,4,10.4,12.6,10.3,24.4c0,0.1,0.1,0.2,0.2,0.3c0.1,0,0.2,0,0.3-0.2
				c4.1-10.3,1.9-29.2-9.3-39.9c2.9-0.4,5.9-0.3,9.1,0.7c0.1,0,0.2,0,0.3-0.1c0.1-0.1,0-0.2-0.1-0.3c-4.1-3.5-9.8-4.5-15.3-4.5
				c4.7,5.5,3.1,16.6-4.4,16.6c-5.3,0-7.8-8.3-3.6-12.8c0.1-0.1,0.1-0.2,0-0.3c-0.1-0.1-0.2-0.1-0.3-0.1c-4.8,1.7-9.9,5.8-9.9,11
				c0,5,4.8,9.4,11.8,9.1c-8.8,2.5-18.1-0.3-22.9-6.3c-0.1-0.1-0.2-0.1-0.3-0.1c-0.1,0.1-0.2,0.2-0.1,0.3
				c2.8,10.7,12,15.2,23.4,13.7c-9.3,3.8-23.3,0.5-29.4-7.3c-0.1-0.1-0.2-0.1-0.3-0.1c-0.1,0-0.2,0.2-0.1,0.3
				C152.2-210.8,155.7-205.8,161.4-203.9z"/>
		</g>
		<g>
			<path class="st1" d="M26.7-184.6c0-0.1,0.1-0.2,0.2-0.2c12.9-0.1,24.8-3.3,34-11.5c-8,5.6-22.9,7.5-31.5,3.6
				c-0.1,0-0.2-0.2-0.1-0.3c0-0.1,0.1-0.2,0.3-0.2c10.7,0.3,19.3-3,26-9c-6.9-0.4-12.6-4.7-12.6-9.8c0-0.1,0.1-0.2,0.2-0.2
				c0.1,0,0.2,0,0.3,0.1c1.1,2.5,4.7,3.8,8.6,2.9c4.2-1,7-4.2,6.3-7.2c-0.5-2-2.4-3.4-5-3.8c-0.1,0-0.2-0.1-0.2-0.3
				c0-0.1,0.1-0.2,0.2-0.2c1.1-0.1,2.2-0.1,3.3,0c6.5,0.6,11.5,4.6,11.9,9.2c4.7-0.5,8.9-3.2,10.4-6.8c0-0.1,0.2-0.2,0.3-0.2
				c0.1,0,0.2,0.1,0.2,0.2c0.4,4.8-1.3,7.8-5,10.9c5.4-2.1,11.4-2.2,17.3,0.5c0.1,0,0.2,0.2,0.1,0.3c0,0.1-0.1,0.2-0.2,0.2
				c-4.9,0.2-8.4,1.8-11.7,5.1c18.3-5.1,33.1,6.2,28,23.1c0,0.1-0.1,0.2-0.3,0.2c-0.1,0-0.2-0.1-0.2-0.2
				c-0.9-9.7-7.7-16.1-17.9-17.1c5.4,2.1,11,7,11.6,15.5c0,0.1-0.1,0.2-0.2,0.3c-0.1,0-0.2,0-0.3-0.1c-2.8-6.2-8.3-9.3-14.2-9.8
				c6.3,2.6,10.4,8.6,11.6,16.4c0,0.1-0.1,0.2-0.2,0.3c-0.1,0-0.2,0-0.3-0.1c-3.9-7.6-12.2-12.8-22.4-8.8
				c-10.6,4.1-15.3,16.4-16.3,25c0,0.1-0.1,0.2-0.2,0.2c-0.1,0-0.2-0.1-0.3-0.2c-3.7-15.7,3.6-31.9,16.6-38.8
				c-7.1,2-13.4,6.3-17,13.4c-8.3,1-14,3.9-16.9,9.2c-0.1,0.1-0.2,0.2-0.3,0.1c-0.1,0-0.2-0.1-0.2-0.3c0.2-2.1,0.9-6.3,4.1-8.3
				c-7,0-12.5-0.9-17.8-3C26.7-184.3,26.7-184.5,26.7-184.6z M56.2-131.1c-0.1-0.1-0.2-0.1-0.3,0c-0.1,0.1-0.1,0.2,0,0.3
				c1.6,2.8,0.1,6.8-3.1,6.8c-5.7,0-8.5-10.8-7.6-20.6c2.2,5.8,4,8.1,7.3,10.8c0.1,0.1,0.2,0.1,0.3,0c0.1-0.1,0.1-0.2,0.1-0.3
				c-4.9-9.1-5.9-16.1-5.9-24.1c1.5,6,3.2,9.3,8.1,14.4c0.1,0.1,0.2,0.1,0.3,0c0.1-0.1,0.1-0.2,0.1-0.3c-5.3-11.6-4.9-24.4-0.9-34.3
				c0-0.1,0-0.2-0.1-0.3c-0.1-0.1-0.2-0.1-0.3,0c-5.2,2.6-8.3,4.2-12.8,10.4c1.4,7.4,0.2,11-3.2,17.2c3.9-9.9,1.8-23.9-8.2-29.6
				c-0.1-0.1-0.2,0-0.3,0.1c-0.1,0.1-0.1,0.2,0,0.3c3.8,4,6.5,10.6,4.2,17.9c1.5-10.4-7.6-19.1-17.8-19.1c-9.6,0-16.2,7.5-15.6,14.9
				c0.5,7.4,5.4,11,9.7,12.5c0.1,0,0.2,0,0.3-0.1c0.1-0.1,0-0.2,0-0.3c-5.6-5.7-6.4-16.5,3.6-19.8c-5.9,5.1-3.7,16.8,5.7,17.7
				c0.1,0,0.2-0.1,0.3-0.2c0-0.1,0-0.2-0.1-0.3c-2-1.3-3.7-3.8-3.7-6.6c0-4.7,3.4-6.5,5.7-6.5c3.4,0,6.3,3.3,6.3,8.2
				c0,5.8-5.3,10.7-12,11.4c-6.6,0.7-12.8-2.2-15.7-6.5c-0.1-0.1-0.2-0.1-0.3-0.1C0-156.9,0-156.8,0-156.7
				c3,11.7,16.8,16.9,26.9,9.5c-6.6,7.5-17,7.6-25.7-0.1c-0.1-0.1-0.2-0.1-0.3,0c-0.1,0.1-0.1,0.2-0.1,0.3
				c2.7,5.4,9.3,11.8,18.6,10.9c8.6-0.9,13.5-9,14.5-15.7c0.6,8.5-1.4,14.5-8.8,20.1c-0.1,0.1-0.1,0.2-0.1,0.3
				c0.1,0.1,0.2,0.2,0.3,0.1c6.8-2,12.2-5.4,15-12.5c0,6.2-2.1,12.4-7.5,16.5c-0.1,0.1-0.1,0.2-0.1,0.3c0.1,0.1,0.2,0.2,0.3,0.1
				c3.5-1,6.2-2.5,8.1-5.2c1.3,11.1,6.5,17.7,12.5,17.7c4.1,0,7.2-3,7.2-7.9C61-124.9,59.5-128.9,56.2-131.1z M155.4-222.7
				c-3.2-3.9-9.5-5.4-16.4-4c0.5-4.3-0.3-8.8-1.6-11.5c-0.1-0.1-0.2-0.2-0.3-0.1c-0.1,0-0.2,0.1-0.2,0.3c0.4,8.8-4.6,15.8-13.4,18.9
				c6.9-4.8,8.9-14.2,5.6-19.1c-0.1-0.1-0.2-0.1-0.3-0.1c-0.1,0-0.2,0.2-0.2,0.3c0.4,2.1-0.6,4.7-2.7,6.7c-2.9,2.8-6.8,3.5-8.8,1.4
				c-2-2-1.2-5.9,1.7-8.8c1.1-1,2.3-1.8,3.4-2.2c0.1,0,0.2-0.2,0.2-0.3c0-0.1-0.1-0.2-0.2-0.2c-6.4-0.6-10.8,3.3-13.5,7.9
				c-2.8,4.7-7.6,8.4-13.2,7.7c-0.1,0-0.2,0.1-0.3,0.2c0,0.1,0,0.2,0.1,0.3c2.8,1.7,5.9,2.4,9.9,1.1c-5.8,4.9-14,7.7-21.8,5.2
				c-0.1,0-0.2,0-0.3,0.1c-0.1,0.1-0.1,0.2,0,0.3c5.9,6.6,17.7,6.7,25.1,1.4c-3,4.3-7.1,7.5-14.3,8.5c-0.1,0-0.2,0.1-0.2,0.2
				c0,0.1,0.1,0.2,0.2,0.3c8.3,3.1,16.6,0,23.4-8.2c-3,6.4-7.9,11.5-14.8,14c-0.1,0-0.2,0.2-0.2,0.3c0,0.1,0.1,0.2,0.2,0.2
				c3.9,0.1,7.5-0.9,12.3-3.6c-3.5,5.7-2.7,15.6,2.4,22.3c0.1,0.1,0.2,0.1,0.3,0.1c0.1,0,0.2-0.2,0.1-0.3
				c-1.2-7.2,1.3-15.3,5.6-19.6c-2.2,7.6,0,14.6,5.9,19.6c0.1,0.1,0.2,0.1,0.3,0c0.1,0,0.1-0.1,0.2-0.2c1.2-9.4,11.8-19,20.6-19.8
				c0.1,0,0.2-0.1,0.2-0.2c0-0.1-0.1-0.2-0.2-0.3c-4.3-1-8.7-0.5-12.4,1c2.7-2.9,5.9-5.1,9.6-6.2c0.1,0,0.2-0.2,0.2-0.3
				c0-0.1-0.1-0.2-0.2-0.2c-4.5-0.3-8.9,1-12.7,3.5c4.4-6.6,11-11.5,19.4-13.5c0.1,0,0.2-0.1,0.2-0.3c0-0.1-0.1-0.2-0.2-0.2
				c-11.9-1.3-21.7,3.3-28.2,11.9c1.6-4.9,6.4-9.8,12.9-12.6c5.8-2.5,11.8-2.9,16.4-1.5c0.1,0,0.2,0,0.3-0.1
				C155.5-222.5,155.5-222.6,155.4-222.7z M102.5-147.2c4.8-10.5,4.5-18.7,0.6-29.1c0-0.1-0.2-0.2-0.3-0.2c-0.1,0-0.2,0.1-0.2,0.3
				c0.6,12.6-2.8,21.7-10.3,27.8c8.3-9.9,4.4-29.6-8.8-29.6c-9.6,0-17.5,8-19.5,17.5c0,0.1,0,0.2,0.2,0.3c0.1,0,0.2,0,0.3-0.1
				c2.8-4.8,7.4-7.9,12.5-7.9c8.1,0,10.5,6.5,10.5,11c0,6.2-4.9,11.3-8.7,11.3c-3.4,0-5-2.8-5-4.9c0-3.9,3-7.2,6.4-8.2
				c0.1,0,0.2-0.2,0.2-0.3c0-0.1-0.1-0.2-0.3-0.2c-4.1,0-7.6,1.9-9.6,5.6c-0.3-2.9-0.3-4.7,0.6-7.7c0-0.1,0-0.2-0.1-0.3
				c-0.1-0.1-0.2,0-0.3,0.1c-7.4,9.4-3.8,25.6,2,32.4c-5.5-4-10.4-12.6-10.3-24.4c0-0.1-0.1-0.2-0.2-0.3c-0.1,0-0.2,0-0.3,0.2
				c-4.1,10.3-1.9,29.2,9.3,39.9c-2.9,0.4-5.9,0.3-9.1-0.7c-0.1,0-0.2,0-0.3,0.1c-0.1,0.1,0,0.2,0.1,0.3c4.1,3.5,9.8,4.5,15.3,4.5
				c-4.7-5.5-3.1-16.6,4.4-16.6c5.3,0,7.8,8.3,3.6,12.8c-0.1,0.1-0.1,0.2,0,0.3c0.1,0.1,0.2,0.1,0.3,0.1c4.8-1.7,9.9-5.8,9.9-11
				c0-5-4.8-9.4-11.8-9.1c8.8-2.5,18.1,0.3,22.9,6.3c0.1,0.1,0.2,0.1,0.3,0.1c0.1-0.1,0.2-0.2,0.1-0.3c-2.8-10.7-12-15.2-23.4-13.7
				c9.3-3.8,23.2-0.5,29.4,7.3c0.1,0.1,0.2,0.1,0.3,0.1c0.1-0.1,0.2-0.2,0.1-0.3C111.8-140.3,108.3-145.2,102.5-147.2z"/>
			<path class="st2" d="M128.9-166.5c0,0.1-0.1,0.2-0.2,0.2c-12.9,0.1-24.8,3.3-34,11.5c8-5.6,22.9-7.5,31.5-3.6
				c0.1,0.1,0.2,0.2,0.1,0.3c0,0.1-0.1,0.2-0.3,0.2c-10.7-0.3-19.3,3-26,9c6.9,0.4,12.6,4.7,12.6,9.8c0,0.1-0.1,0.2-0.2,0.2
				c-0.1,0-0.2,0-0.3-0.1c-1.1-2.5-4.7-3.8-8.6-2.9c-4.2,1-7,4.2-6.3,7.2c0.5,2,2.4,3.4,5,3.8c0.1,0,0.2,0.1,0.2,0.3
				c0,0.1-0.1,0.2-0.2,0.2c-1.1,0.1-2.2,0.1-3.3,0c-6.5-0.6-11.5-4.6-11.9-9.2c-4.7,0.5-8.9,3.2-10.4,6.8c0,0.1-0.2,0.2-0.3,0.2
				c-0.1,0-0.2-0.1-0.2-0.2c-0.4-4.8,1.3-7.8,5-10.9c-5.4,2.1-11.4,2.2-17.3-0.5c-0.1-0.1-0.2-0.2-0.1-0.3c0-0.1,0.1-0.2,0.2-0.2
				c4.9-0.2,8.4-1.8,11.7-5.1c-18.3,5.1-33.1-6.2-28-23.1c0-0.1,0.1-0.2,0.3-0.2c0.1,0,0.2,0.1,0.2,0.2c0.9,9.7,7.7,16.1,17.9,17.1
				c-5.4-2.1-11-7-11.6-15.5c0-0.1,0.1-0.2,0.2-0.3c0.1,0,0.2,0,0.3,0.1c2.8,6.2,8.3,9.3,14.2,9.8c-6.3-2.6-10.4-8.6-11.6-16.4
				c0-0.1,0.1-0.2,0.2-0.3c0.1,0,0.2,0,0.3,0.1c3.9,7.6,12.2,12.8,22.4,8.8c10.6-4.1,15.3-16.4,16.3-25c0-0.1,0.1-0.2,0.2-0.2
				c0.1,0,0.2,0.1,0.3,0.2c3.7,15.7-3.6,31.9-16.6,38.8c7.1-2,13.4-6.3,17-13.4c8.3-1,14-3.9,16.9-9.2c0.1-0.1,0.2-0.2,0.3-0.1
				c0.1,0,0.2,0.1,0.2,0.3c-0.2,2.1-0.9,6.3-4.1,8.3c7,0,12.5,0.9,17.8,3C128.8-166.7,128.9-166.6,128.9-166.5z M99.4-219.9
				c0.1,0.1,0.2,0.1,0.3,0c0.1-0.1,0.1-0.2,0-0.3c-1.6-2.8-0.1-6.8,3.1-6.8c5.7,0,8.5,10.8,7.6,20.6c-2.2-5.8-4-8.1-7.3-10.8
				c-0.1-0.1-0.2-0.1-0.3,0c-0.1,0.1-0.1,0.2-0.1,0.3c4.9,9.1,5.9,16.1,5.9,24.1c-1.5-6-3.2-9.3-8.1-14.4c-0.1-0.1-0.2-0.1-0.3,0
				c-0.1,0.1-0.1,0.2-0.1,0.3c5.3,11.6,4.9,24.4,0.9,34.3c0,0.1,0,0.2,0.1,0.3c0.1,0.1,0.2,0.1,0.3,0c5.2-2.6,8.3-4.2,12.8-10.4
				c-1.4-7.4-0.2-11,3.2-17.2c-3.9,9.9-1.8,23.9,8.2,29.6c0.1,0.1,0.2,0,0.3-0.1c0.1-0.1,0.1-0.2,0-0.3c-3.8-4-6.5-10.6-4.2-17.9
				c-1.5,10.4,7.6,19.1,17.8,19.1c9.6,0,16.2-7.5,15.6-14.9c-0.5-7.4-5.4-11-9.7-12.5c-0.1,0-0.2,0-0.3,0.1c-0.1,0.1-0.1,0.2,0,0.3
				c5.6,5.7,6.4,16.5-3.6,19.8c5.9-5.1,3.7-16.8-5.7-17.7c-0.1,0-0.2,0.1-0.3,0.2c0,0.1,0,0.2,0.1,0.3c2,1.3,3.7,3.8,3.7,6.6
				c0,4.7-3.4,6.5-5.7,6.5c-3.4,0-6.3-3.3-6.3-8.2c0-5.8,5.3-10.7,12-11.4c6.6-0.7,12.8,2.2,15.8,6.5c0.1,0.1,0.2,0.1,0.3,0.1
				c0.1-0.1,0.2-0.2,0.1-0.3c-3-11.7-16.8-16.9-26.9-9.5c6.6-7.5,17-7.6,25.7,0.1c0.1,0.1,0.2,0.1,0.3,0c0.1-0.1,0.1-0.2,0.1-0.3
				c-2.7-5.4-9.3-11.8-18.6-10.9c-8.6,0.9-13.5,9-14.5,15.7c-0.6-8.5,1.4-14.5,8.8-20.1c0.1-0.1,0.1-0.2,0.1-0.3
				c-0.1-0.1-0.2-0.2-0.3-0.1c-6.8,2-12.2,5.4-15,12.5c0-6.2,2.1-12.4,7.5-16.5c0.1-0.1,0.1-0.2,0.1-0.3c-0.1-0.1-0.2-0.2-0.3-0.1
				c-3.5,1-6.2,2.5-8.1,5.2c-1.3-11.1-6.5-17.7-12.5-17.7c-4.1,0-7.2,3-7.2,7.9C94.6-226.1,96.1-222.1,99.4-219.9z M0.2-128.3
				c3.2,3.9,9.5,5.4,16.4,4c-0.5,4.3,0.3,8.8,1.6,11.5c0.1,0.1,0.2,0.2,0.3,0.1c0.1,0,0.2-0.1,0.2-0.3c-0.4-8.8,4.6-15.8,13.4-18.9
				c-6.9,4.8-8.9,14.2-5.6,19.1c0.1,0.1,0.2,0.1,0.3,0.1c0.1,0,0.2-0.2,0.2-0.3c-0.4-2.1,0.6-4.7,2.7-6.7c2.9-2.8,6.8-3.5,8.8-1.4
				c2,2,1.2,5.9-1.7,8.8c-1.1,1-2.3,1.8-3.4,2.2c-0.1,0-0.2,0.2-0.2,0.3c0,0.1,0.1,0.2,0.2,0.2c6.4,0.6,10.8-3.3,13.5-7.9
				c2.8-4.7,7.6-8.4,13.2-7.7c0.1,0,0.2-0.1,0.3-0.2c0-0.1,0-0.2-0.1-0.3c-2.8-1.7-5.9-2.4-9.9-1.1c5.8-4.9,14-7.7,21.8-5.2
				c0.1,0,0.2,0,0.3-0.1c0.1-0.1,0.1-0.2,0-0.3c-5.9-6.6-17.7-6.7-25.1-1.4c3-4.3,7.1-7.5,14.3-8.5c0.1,0,0.2-0.1,0.2-0.2
				c0-0.1-0.1-0.2-0.2-0.3c-8.3-3.1-16.6,0-23.4,8.2c3-6.4,7.9-11.5,14.8-14c0.1,0,0.2-0.2,0.2-0.3c0-0.1-0.1-0.2-0.2-0.2
				c-3.9-0.1-7.5,0.9-12.3,3.6c3.5-5.7,2.7-15.6-2.4-22.3c-0.1-0.1-0.2-0.1-0.3-0.1c-0.1,0-0.2,0.2-0.1,0.3
				c1.2,7.2-1.3,15.3-5.6,19.6c2.2-7.6,0-14.6-5.9-19.6c-0.1-0.1-0.2-0.1-0.3,0c-0.1,0-0.1,0.1-0.2,0.2c-1.2,9.4-11.8,19-20.6,19.8
				c-0.1,0-0.2,0.1-0.2,0.2c0,0.1,0.1,0.2,0.2,0.3c4.3,1,8.7,0.5,12.4-1c-2.7,2.9-5.9,5.1-9.6,6.2c-0.1,0-0.2,0.2-0.2,0.3
				c0,0.1,0.1,0.2,0.2,0.2c4.5,0.3,8.9-1,12.7-3.5c-4.4,6.6-11,11.5-19.4,13.5c-0.1,0-0.2,0.1-0.2,0.3c0,0.1,0.1,0.2,0.2,0.2
				c11.9,1.3,21.7-3.3,28.2-11.9c-1.6,4.9-6.4,9.8-12.9,12.6c-5.8,2.5-11.8,2.9-16.4,1.5c-0.1,0-0.2,0-0.3,0.1
				C0.1-128.5,0.1-128.4,0.2-128.3z M53.1-203.9c-4.8,10.5-4.5,18.7-0.6,29.1c0,0.1,0.2,0.2,0.3,0.2c0.1,0,0.2-0.1,0.2-0.3
				c-0.6-12.6,2.8-21.7,10.3-27.8c-8.3,9.9-4.4,29.6,8.8,29.6c9.6,0,17.5-8,19.5-17.5c0-0.1,0-0.2-0.2-0.3c-0.1,0-0.2,0-0.3,0.1
				c-2.8,4.8-7.4,7.9-12.5,7.9c-8.1,0-10.5-6.5-10.5-11c0-6.2,4.9-11.3,8.7-11.3c3.4,0,5,2.8,5,4.9c0,3.9-3,7.2-6.4,8.2
				c-0.1,0-0.2,0.2-0.2,0.3s0.1,0.2,0.3,0.2c4.1,0,7.6-1.9,9.6-5.6c0.3,2.9,0.3,4.7-0.6,7.7c0,0.1,0,0.2,0.1,0.3
				c0.1,0.1,0.2,0,0.3-0.1c7.4-9.4,3.8-25.6-2-32.4c5.5,4,10.4,12.6,10.3,24.4c0,0.1,0.1,0.2,0.2,0.3c0.1,0,0.2,0,0.3-0.2
				c4.1-10.3,1.9-29.2-9.3-39.9c2.9-0.4,5.9-0.3,9.1,0.7c0.1,0,0.2,0,0.3-0.1c0.1-0.1,0-0.2-0.1-0.3c-4.1-3.5-9.8-4.5-15.3-4.5
				c4.7,5.5,3.1,16.6-4.4,16.6c-5.3,0-7.8-8.3-3.6-12.8c0.1-0.1,0.1-0.2,0-0.3c-0.1-0.1-0.2-0.1-0.3-0.1c-4.8,1.7-9.9,5.8-9.9,11
				c0,5,4.8,9.4,11.8,9.1c-8.8,2.5-18.1-0.3-22.9-6.3c-0.1-0.1-0.2-0.1-0.3-0.1c-0.1,0.1-0.2,0.2-0.1,0.3
				c2.8,10.7,12,15.2,23.4,13.7c-9.3,3.8-23.3,0.5-29.4-7.3c-0.1-0.1-0.2-0.1-0.3-0.1c-0.1,0-0.2,0.2-0.1,0.3
				C43.8-210.8,47.3-205.8,53.1-203.9z"/>
		</g>
	</g>
</pattern>
<g class="st3">
	<path class="st4" d="M457.3,265.2L450,278l-12-21.3c0.6-0.1,1.2-0.1,1.8-0.1C446.9,256.7,453.1,260,457.3,265.2z"/>
	<path class="st4" d="M443.2,270h-23.8c3.1-7,9.2-11.6,16.5-12.9L443.2,270z"/>
	<path class="st4" d="M433.2,272l-11.8,21.3c-2.6-3.8-4.1-8.4-4.1-13.4c0-2.8,0.5-5.4,1.4-8c0,0,0,0,0,0H433.2z"/>
	<path class="st4" d="M441.8,303c-0.7,0.1-1.3,0.1-2,0.1c-6.9,0-13.1-3.2-17.2-8.3l7.2-13L441.8,303z"/>
	<path class="st4" d="M460.2,290c-3.1,7-9.1,11.5-16.3,12.8l-7.3-12.8H460.2z"/>
	<path class="st4" d="M462.4,279.9c0,2.8-0.5,5.1-1.4,8.1h-14.4l11.9-21.1C460.9,270.6,462.4,275.1,462.4,279.9z"/>
</g>
<g>
	<g>
		<g>
			<path class="Jive_GS" d="M440.1,271.7c0.9,0,1.6,0.1,2.2,0.4l0.8,0.3c0.1,0,0.1,0,0.2,0c0.1,0,0.2,0,0.3-0.1l0.2-0.1
				c0,0,0.1,0,0.1,0c0.2,0,0.3,0.2,0.3,0.6c0,0.1,0.1,0.5,0.2,1.2l0.2,1.2c0,0.3,0.1,0.4,0.1,0.5c0,0.2-0.1,0.4-0.3,0.4
				c-0.1,0-0.3-0.2-0.4-0.6c-0.3-0.9-0.9-1.6-1.8-2.1c-0.9-0.6-1.9-0.8-3-0.8c-0.9,0-1.6,0.3-2.2,0.8c-0.6,0.5-0.9,1.1-0.9,1.9
				c0,0.7,0.2,1.3,0.6,1.7c0.3,0.4,0.7,0.7,1.1,0.9c0.4,0.2,1.3,0.5,2.9,1c3,1,4.4,2.6,4.4,4.8c0,1.5-0.5,2.7-1.6,3.7
				c-1.1,1-2.5,1.4-4.2,1.4c-0.6,0-1.3-0.1-2-0.3c-0.7-0.2-1.3-0.4-1.6-0.6c-0.1-0.1-0.2-0.2-0.3-0.3c0-0.1-0.1-0.4-0.2-0.8
				c0-0.1-0.1-0.4-0.3-1.1c-0.2-0.7-0.3-1.2-0.3-1.5c0-0.2,0.1-0.4,0.2-0.3c0.1,0,0.3,0.2,0.4,0.6c0.3,1,0.9,1.8,1.8,2.5
				c0.9,0.7,1.9,1,3,1c1.1,0,2-0.3,2.8-1c0.8-0.6,1.1-1.4,1.1-2.4c0-0.9-0.4-1.6-1.1-2.2c-0.4-0.3-1.4-0.8-3.1-1.3
				c-1.8-0.6-3-1.3-3.8-2c-0.7-0.7-1.1-1.7-1.1-2.8c0-1.3,0.5-2.4,1.4-3.2C437.3,272.1,438.5,271.7,440.1,271.7z"/>
			<path class="Jive_GS" d="M440.1,271.7c0.9,0,1.6,0.1,2.2,0.4l0.8,0.3c0.1,0,0.1,0,0.2,0c0.1,0,0.2,0,0.3-0.1l0.2-0.1
				c0,0,0.1,0,0.1,0c0.2,0,0.3,0.2,0.3,0.6c0,0.1,0.1,0.5,0.2,1.2l0.2,1.2c0,0.3,0.1,0.4,0.1,0.5c0,0.2-0.1,0.4-0.3,0.4
				c-0.1,0-0.3-0.2-0.4-0.6c-0.3-0.9-0.9-1.6-1.8-2.1c-0.9-0.6-1.9-0.8-3-0.8c-0.9,0-1.6,0.3-2.2,0.8c-0.6,0.5-0.9,1.1-0.9,1.9
				c0,0.7,0.2,1.3,0.6,1.7c0.3,0.4,0.7,0.7,1.1,0.9c0.4,0.2,1.3,0.5,2.9,1c3,1,4.4,2.6,4.4,4.8c0,1.5-0.5,2.7-1.6,3.7
				c-1.1,1-2.5,1.4-4.2,1.4c-0.6,0-1.3-0.1-2-0.3c-0.7-0.2-1.3-0.4-1.6-0.6c-0.1-0.1-0.2-0.2-0.3-0.3c0-0.1-0.1-0.4-0.2-0.8
				c0-0.1-0.1-0.4-0.3-1.1c-0.2-0.7-0.3-1.2-0.3-1.5c0-0.2,0.1-0.4,0.2-0.3c0.1,0,0.3,0.2,0.4,0.6c0.3,1,0.9,1.8,1.8,2.5
				c0.9,0.7,1.9,1,3,1c1.1,0,2-0.3,2.8-1c0.8-0.6,1.1-1.4,1.1-2.4c0-0.9-0.4-1.6-1.1-2.2c-0.4-0.3-1.4-0.8-3.1-1.3
				c-1.8-0.6-3-1.3-3.8-2c-0.7-0.7-1.1-1.7-1.1-2.8c0-1.3,0.5-2.4,1.4-3.2C437.3,272.1,438.5,271.7,440.1,271.7z"/>
		</g>
	</g>
	<g>
		<g>
			<pattern  id="SVGID_1_" xlink:href="#Jive" patternTransform="matrix(0 -1.47 1.47 0 3161.8486 -18589.4766)">
			</pattern>
			<path class="st5" d="M440.1,271.7c0.9,0,1.6,0.1,2.2,0.4l0.8,0.3c0.1,0,0.1,0,0.2,0c0.1,0,0.2,0,0.3-0.1l0.2-0.1c0,0,0.1,0,0.1,0
				c0.2,0,0.3,0.2,0.3,0.6c0,0.1,0.1,0.5,0.2,1.2l0.2,1.2c0,0.3,0.1,0.4,0.1,0.5c0,0.2-0.1,0.4-0.3,0.4c-0.1,0-0.3-0.2-0.4-0.6
				c-0.3-0.9-0.9-1.6-1.8-2.1c-0.9-0.6-1.9-0.8-3-0.8c-0.9,0-1.6,0.3-2.2,0.8c-0.6,0.5-0.9,1.1-0.9,1.9c0,0.7,0.2,1.3,0.6,1.7
				c0.3,0.4,0.7,0.7,1.1,0.9c0.4,0.2,1.3,0.5,2.9,1c3,1,4.4,2.6,4.4,4.8c0,1.5-0.5,2.7-1.6,3.7c-1.1,1-2.5,1.4-4.2,1.4
				c-0.6,0-1.3-0.1-2-0.3c-0.7-0.2-1.3-0.4-1.6-0.6c-0.1-0.1-0.2-0.2-0.3-0.3c0-0.1-0.1-0.4-0.2-0.8c0-0.1-0.1-0.4-0.3-1.1
				c-0.2-0.7-0.3-1.2-0.3-1.5c0-0.2,0.1-0.4,0.2-0.3c0.1,0,0.3,0.2,0.4,0.6c0.3,1,0.9,1.8,1.8,2.5c0.9,0.7,1.9,1,3,1
				c1.1,0,2-0.3,2.8-1c0.8-0.6,1.1-1.4,1.1-2.4c0-0.9-0.4-1.6-1.1-2.2c-0.4-0.3-1.4-0.8-3.1-1.3c-1.8-0.6-3-1.3-3.8-2
				c-0.7-0.7-1.1-1.7-1.1-2.8c0-1.3,0.5-2.4,1.4-3.2C437.3,272.1,438.5,271.7,440.1,271.7z"/>
			<pattern  id="SVGID_2_" xlink:href="#Jive" patternTransform="matrix(0 -1.47 1.47 0 3161.8486 -18589.4766)">
			</pattern>
			<path class="st6" d="M440.1,271.7c0.9,0,1.6,0.1,2.2,0.4l0.8,0.3c0.1,0,0.1,0,0.2,0c0.1,0,0.2,0,0.3-0.1l0.2-0.1c0,0,0.1,0,0.1,0
				c0.2,0,0.3,0.2,0.3,0.6c0,0.1,0.1,0.5,0.2,1.2l0.2,1.2c0,0.3,0.1,0.4,0.1,0.5c0,0.2-0.1,0.4-0.3,0.4c-0.1,0-0.3-0.2-0.4-0.6
				c-0.3-0.9-0.9-1.6-1.8-2.1c-0.9-0.6-1.9-0.8-3-0.8c-0.9,0-1.6,0.3-2.2,0.8c-0.6,0.5-0.9,1.1-0.9,1.9c0,0.7,0.2,1.3,0.6,1.7
				c0.3,0.4,0.7,0.7,1.1,0.9c0.4,0.2,1.3,0.5,2.9,1c3,1,4.4,2.6,4.4,4.8c0,1.5-0.5,2.7-1.6,3.7c-1.1,1-2.5,1.4-4.2,1.4
				c-0.6,0-1.3-0.1-2-0.3c-0.7-0.2-1.3-0.4-1.6-0.6c-0.1-0.1-0.2-0.2-0.3-0.3c0-0.1-0.1-0.4-0.2-0.8c0-0.1-0.1-0.4-0.3-1.1
				c-0.2-0.7-0.3-1.2-0.3-1.5c0-0.2,0.1-0.4,0.2-0.3c0.1,0,0.3,0.2,0.4,0.6c0.3,1,0.9,1.8,1.8,2.5c0.9,0.7,1.9,1,3,1
				c1.1,0,2-0.3,2.8-1c0.8-0.6,1.1-1.4,1.1-2.4c0-0.9-0.4-1.6-1.1-2.2c-0.4-0.3-1.4-0.8-3.1-1.3c-1.8-0.6-3-1.3-3.8-2
				c-0.7-0.7-1.1-1.7-1.1-2.8c0-1.3,0.5-2.4,1.4-3.2C437.3,272.1,438.5,271.7,440.1,271.7z"/>
		</g>
	</g>
	<g>
		<g>
			<path class="st7" d="M440.1,271.7c0.9,0,1.6,0.1,2.2,0.4l0.8,0.3c0.1,0,0.1,0,0.2,0c0.1,0,0.2,0,0.3-0.1l0.2-0.1c0,0,0.1,0,0.1,0
				c0.2,0,0.3,0.2,0.3,0.6c0,0.1,0.1,0.5,0.2,1.2l0.2,1.2c0,0.3,0.1,0.4,0.1,0.5c0,0.2-0.1,0.4-0.3,0.4c-0.1,0-0.3-0.2-0.4-0.6
				c-0.3-0.9-0.9-1.6-1.8-2.1c-0.9-0.6-1.9-0.8-3-0.8c-0.9,0-1.6,0.3-2.2,0.8c-0.6,0.5-0.9,1.1-0.9,1.9c0,0.7,0.2,1.3,0.6,1.7
				c0.3,0.4,0.7,0.7,1.1,0.9c0.4,0.2,1.3,0.5,2.9,1c3,1,4.4,2.6,4.4,4.8c0,1.5-0.5,2.7-1.6,3.7c-1.1,1-2.5,1.4-4.2,1.4
				c-0.6,0-1.3-0.1-2-0.3c-0.7-0.2-1.3-0.4-1.6-0.6c-0.1-0.1-0.2-0.2-0.3-0.3c0-0.1-0.1-0.4-0.2-0.8c0-0.1-0.1-0.4-0.3-1.1
				c-0.2-0.7-0.3-1.2-0.3-1.5c0-0.2,0.1-0.4,0.2-0.3c0.1,0,0.3,0.2,0.4,0.6c0.3,1,0.9,1.8,1.8,2.5c0.9,0.7,1.9,1,3,1
				c1.1,0,2-0.3,2.8-1c0.8-0.6,1.1-1.4,1.1-2.4c0-0.9-0.4-1.6-1.1-2.2c-0.4-0.3-1.4-0.8-3.1-1.3c-1.8-0.6-3-1.3-3.8-2
				c-0.7-0.7-1.1-1.7-1.1-2.8c0-1.3,0.5-2.4,1.4-3.2C437.3,272.1,438.5,271.7,440.1,271.7z"/>
		</g>
	</g>
</g>
<g id="XMLID_1_" class="st8">
	<path class="st7" d="M442.7,301.9l0.1,0.1c-3.9,2.5-8.5,4-13.5,4c-13.8,0-25-11.2-25-25s11.2-25,25-25c4.9,0,9.5,1.4,13.4,3.9v4.3
		c-3.6-2.9-8.3-4.6-13.3-4.6c-11.8,0-21.4,9.6-21.4,21.4s9.6,21.4,21.4,21.4c5,0,9.6-1.7,13.3-4.6V301.9z"/>
</g>
</svg>
